<?xml version="1.0" encoding="utf-8" ?>
<svg xmlns="http://www.w3.org/2000/svg" xmlns:xlink="http://www.w3.org/1999/xlink" width="1024" height="1024">
	<path fill="white" d="M-0 -0L1024 0L1024 1024L-0 1024L0 -0Z"/>
	<path fill="#BA481F" d="M575.478 123.53C576.023 122.252 576.326 121.655 577.441 120.75L578.25 121.03L577.126 122.126L582.5 122.377L583.125 122.002L583.75 122L584.613 121.622L585.19 122.295C584.544 122.573 583.023 122.967 582.78 123.617C582.022 125.638 582.394 130.204 582.629 132.424C580.878 133.688 578.013 133.428 575.905 133.521L575.478 123.53Z"/>
	<path fill="#C78882" d="M496.514 597.941C498.177 600.865 496.549 605.242 495.694 608.35L490.912 628.815L488.178 642.297C487.688 644.602 487.4 647.052 486.517 649.243L484.538 652.143C483.664 653.431 483.552 655.016 482.475 656.167L496.514 597.941Z"/>
	<defs>
		<linearGradient id="gradient_0" gradientUnits="userSpaceOnUse" x1="411.63461" y1="492.3114" x2="411.36539" y2="481.1886">
			<stop offset="0" stop-color="#C0734E"/>
			<stop offset="1" stop-color="#C98476"/>
		</linearGradient>
	</defs>
	<path fill="url(#gradient_0)" d="M392.588 474.03L395.187 474.362L395.462 474.695C399.157 481.712 404.873 485.932 412.37 488.265C420.678 490.85 430.896 489.401 438.535 485.358L444.385 481.586C441.981 485.439 438.269 488.289 434.223 490.264C426.47 494.05 418.264 493.948 410.25 490.993C402.231 488.036 396.071 481.725 392.588 474.03Z"/>
	<path fill="#C5753B" d="M286.424 399.031C285.04 395.892 284.801 391.4 286.071 388.18C287.882 383.587 293.42 377.177 298.123 375.346C301.677 373.961 304.137 374.78 307.393 376.349C311.142 378.156 314.371 380.95 317.52 383.626L334.019 398.762L332.011 399.543C331.409 399.731 331.075 399.863 330.471 399.649C328.145 398.826 325.678 396.292 323.801 394.697L308.034 380.935C306.617 379.8 304.896 379.035 303.262 378.269C300.622 380.697 297.497 384.593 294.351 386.153C293.211 386.718 292.496 387.336 291.531 388.146C290.267 389.206 289.497 389.852 288.75 391.371C288.159 392.575 287.597 393.378 286.662 394.339L286.34 394.661C286.576 396.09 286.451 397.587 286.424 399.031Z"/>
	<path fill="#DDB793" d="M668.056 394.476C673.169 392.72 679.814 392.896 685 394.369L685.719 394.567C697.804 398.009 704.28 408.774 710.982 418.511C716.81 426.978 722.32 435.84 727.261 444.856C730.572 450.898 733.388 457.198 735.823 463.641C737.221 467.339 738.787 471.545 739.015 475.517C735.126 472.424 734.244 463.961 731.735 459.311C728.647 453.584 726.28 447.278 722.977 441.75C720.002 436.771 716.497 432.302 713.166 427.602L704.273 414.133C697.157 404.026 690.768 397.531 677.837 396.074C674.554 395.704 671.067 396.098 667.865 395.542L668.056 394.476Z"/>
	<path fill="#DDB793" d="M472.898 399.69C476.221 397.075 480.019 395.474 483.972 394.099L482.807 397.081C482.203 398.72 481.452 400.281 481.567 402.061L481.212 402.32L480.144 408.75C477.154 407.829 473.997 408.407 471.25 409.864C468.68 411.227 466.743 414.2 464.825 416.338C458.926 422.914 453.213 430.443 446.45 436.116C445.18 437.181 442.904 441.01 441.391 441.034L441.249 438.335C440.688 439.494 440.18 440.48 440.039 441.783L439.687 441.826C435.632 441.018 428.46 437.92 425.767 434.85C429.587 435.502 432.784 436.53 436.257 438.19C438.442 435.018 441.139 432.155 443.639 429.223L460.723 410.602C464.455 406.832 468.283 402.373 472.898 399.69Z"/>
	<path fill="#C78882" d="M449.463 262.311L451.342 266.533L452.062 268.292L456.115 288.122C458.289 293.358 461.82 297.619 464.725 302.393C467.891 313.162 478.374 323.97 487.75 329.922C491.464 332.279 496.181 334.042 499.581 336.749C502.199 337.689 504.782 338.679 507.502 339.289L519.283 343.09L520.611 342.923C523.624 343.881 526.675 344.835 529.754 345.556C531.051 345.86 533.318 346.104 534.457 346.75C534.885 346.993 535.686 348.311 536.036 348.756L521.062 345.781C517.943 345.313 514.644 344.208 511.584 343.399C505.675 341.837 499.494 340.166 493.881 337.715C478.444 330.975 465.663 320.908 459.36 304.879C456.137 298.799 454.461 291.037 452.61 284.413C451.437 276.944 449.831 269.935 449.463 262.311Z"/>
	<path fill="#C5753B" d="M564.31 85.4575C565.365 83.9833 567.626 82.8441 569.24 82.1073C574.312 79.793 580.958 79.753 586.133 81.7522C588.211 82.8098 590.195 83.7679 591.999 85.2705C596.037 87.6121 598.324 91.755 599.497 96.1341C597.932 95.2493 597.107 93.7363 596.115 92.2893C593.965 89.8929 591.729 87.5639 588.75 86.2355C586.365 87.8645 585.573 90.8719 583.736 93.0251C582.432 94.5535 580.269 95.8246 578.619 96.9793C577.731 96.9487 576.943 96.8973 576.062 96.75L575.093 95.3801C572.159 99.0427 570.361 100.285 565.718 101.29L565.995 101.855C564.996 103.21 564.507 103.999 564.817 105.749C565.876 111.711 571.838 115.592 570.56 121.956L567.851 120.502C565.783 119.096 564.078 117.68 562.279 115.942L559.525 112.239C556.733 107.675 556.325 102.099 557.648 97.0016C558.669 92.471 561.122 88.7522 564.31 85.4575Z"/>
	<path fill="#C78882" d="M560.36 94.0941L560.712 93.6573C562.227 93.0725 562.213 93.0516 563.75 93.5638L563.942 93.9295C564.934 95.5758 565.945 96.5964 567.75 97.1435C570.186 96.6186 571.052 95.2811 572.757 93.5847C571.938 95.45 571.415 96.862 569.75 98.1002C566.486 98.9305 562.297 97.9887 559.745 100.25L559.414 105.717L560.131 107.37C563.47 110.997 567.833 114.707 567.882 120.015L567.851 120.502C565.783 119.096 564.078 117.68 562.279 115.942L559.525 112.239C556.733 107.675 556.325 102.099 557.648 97.0016L560.36 94.0941Z"/>
	<path fill="#DDB793" d="M564.31 85.4575C565.365 83.9833 567.626 82.8441 569.24 82.1073C574.312 79.793 580.958 79.753 586.133 81.7522C584.783 85.5384 580.781 87.0415 577.718 89.2179L573.008 92.9319L572.757 93.5847C571.052 95.2811 570.186 96.6186 567.75 97.1435C565.945 96.5964 564.934 95.5758 563.942 93.9295L563.75 93.5638C562.213 93.0516 562.227 93.0725 560.712 93.6573L560.36 94.0941L557.648 97.0016C558.669 92.471 561.122 88.7522 564.31 85.4575Z"/>
	<defs>
		<linearGradient id="gradient_1" gradientUnits="userSpaceOnUse" x1="594.42798" y1="113.83105" x2="568.26416" y2="97.556244">
			<stop offset="0" stop-color="#B45515"/>
			<stop offset="1" stop-color="#CD7648"/>
		</linearGradient>
	</defs>
	<path fill="url(#gradient_1)" d="M578.619 96.9793C580.269 95.8246 582.432 94.5535 583.736 93.0251C585.573 90.8719 586.365 87.8645 588.75 86.2355C591.729 87.5639 593.965 89.8929 596.115 92.2893C597.107 93.7363 597.932 95.2493 599.497 96.1341C600.79 102.272 599.792 108.35 596.249 113.59C593.611 117.491 589.692 120.805 585.19 122.295L584.613 121.622L583.75 122L583.125 122.002L582.5 122.377L577.126 122.126L578.25 121.03L577.441 120.75C576.326 121.655 576.023 122.252 575.478 123.53L570.56 121.956C571.838 115.592 565.876 111.711 564.817 105.749C564.507 103.999 564.996 103.21 565.995 101.855L565.718 101.29C570.361 100.285 572.159 99.0427 575.093 95.3801L576.062 96.75C576.943 96.8973 577.731 96.9487 578.619 96.9793Z"/>
	<defs>
		<linearGradient id="gradient_2" gradientUnits="userSpaceOnUse" x1="588.68005" y1="102.94109" x2="582.52423" y2="90.443413">
			<stop offset="0" stop-color="#B7470B"/>
			<stop offset="1" stop-color="#D47020"/>
		</linearGradient>
	</defs>
	<path fill="url(#gradient_2)" d="M578.619 96.9793C580.269 95.8246 582.432 94.5535 583.736 93.0251C585.573 90.8719 586.365 87.8645 588.75 86.2355C591.729 87.5639 593.965 89.8929 596.115 92.2893C595.784 94.8472 595.667 97.11 594.102 99.25L593.697 99.8263C591.704 102.534 586.853 105.736 583.548 106.192C581.214 106.515 579.706 105.634 577.971 104.161C576.675 103.06 575.806 102.278 575.57 100.5C576.442 98.9969 577.296 98.0979 578.619 96.9793Z"/>
	<defs>
		<linearGradient id="gradient_3" gradientUnits="userSpaceOnUse" x1="476.29767" y1="446.20834" x2="454.89258" y2="424.98453">
			<stop offset="0" stop-color="#B54F1B"/>
			<stop offset="1" stop-color="#DEC09F"/>
		</linearGradient>
	</defs>
	<path fill="url(#gradient_3)" d="M480.144 408.75C479.783 411.57 479.654 415.022 478.883 417.701C478.575 418.771 479.009 419.933 479.245 421L478.745 421.75C478.745 423.133 479.026 424.329 478.245 425.5C478.245 426.669 478.281 426.44 477.745 427.5L477.497 428.498L476.75 428.745L476.125 427.625L476.5 426.75L476.5 423.25L475.75 422.745C474.627 423.122 473.838 423.949 472.921 424.683C470.863 426.332 468.229 428.745 466.998 430.998C465.949 432.915 462.488 434.079 462.5 436.5C464.017 435.683 463.917 435.257 465 434.25C465.586 433.705 466.981 433.317 467.75 433C468.901 432.526 468.42 432.903 468.984 432.016C469.499 431.206 470.06 430.652 470.75 430L471.5 430.5C472.652 429.348 472.866 429.329 474.498 429.125L474.875 429.875L476 429C477.389 429.279 477.348 429.379 478.245 430.5L478.182 431.169C478.06 432.67 478.141 431.369 478.164 432.646C478.18 433.505 477.877 434.084 477.541 434.852L477.328 445.71L477.308 446.075L462.607 458.747C460.43 460.487 458.022 462.564 455.434 463.648C454.359 464.099 453.22 464.042 452.082 463.969L451.966 463.647C451.028 462.539 451.111 462.166 450.861 460.739C451.77 460.717 451.302 460.752 452.264 460.625C451.82 459.14 451.366 458.618 450.301 457.565L448.167 452.207L445.38 447.508C443.977 445.017 442.31 443.495 440.039 441.783C440.18 440.48 440.688 439.494 441.249 438.335L441.391 441.034C442.904 441.01 445.18 437.181 446.45 436.116C453.213 430.443 458.926 422.914 464.825 416.338C466.743 414.2 468.68 411.227 471.25 409.864C473.997 408.407 477.154 407.829 480.144 408.75Z"/>
	<path fill="#C78882" d="M355.477 439.235C359.369 433.37 366.248 428.77 370.704 423.175C373.477 419.692 375.081 415.11 378.985 412.735C378.952 414.721 378.993 417.147 377.926 418.903C382.83 425.75 388.934 431.741 394.89 437.669C396.687 439.457 398.825 442.192 401.174 443.18C402.562 444.423 404.138 445.73 404.36 447.695L404.009 448.471C402.912 451.967 399.442 454.842 397.69 458.079C396.469 459.825 392.162 464.803 392.536 466.654C393.088 469.384 393.95 471.868 395.187 474.362L392.588 474.03L390.654 466.718L389.75 466.497C382.988 465.042 376.074 456.851 370.836 452.343L355.477 439.235Z"/>
	<path fill="#DDB793" d="M377.926 418.903C382.83 425.75 388.934 431.741 394.89 437.669C396.687 439.457 398.825 442.192 401.174 443.18C402.562 444.423 404.138 445.73 404.36 447.695L404.009 448.471C403.566 448.486 403.122 448.533 402.683 448.434C397.506 447.266 380.924 431.055 378.621 426.282C377.345 423.638 377.025 421.643 377.926 418.903Z"/>
	<path fill="#BE6A2E" d="M286.424 399.031C286.451 397.587 286.576 396.09 286.34 394.661L286.662 394.339C287.597 393.378 288.159 392.575 288.75 391.371C289.497 389.852 290.267 389.206 291.531 388.146C292.496 387.336 293.211 386.718 294.351 386.153C297.497 384.593 300.622 380.697 303.262 378.269C304.896 379.035 306.617 379.8 308.034 380.935L323.801 394.697C325.678 396.292 328.145 398.826 330.471 399.649C331.075 399.863 331.409 399.731 332.011 399.543L334.019 398.762L337.097 400.881C334.996 403.157 332.829 405.377 331.566 408.25C330.798 409.996 330.448 412.031 329.412 413.642C327.701 416.303 324.958 418.511 322.967 421C322.265 421.877 321.744 422.89 321.275 423.905C320.844 425.405 320.567 426.842 319.5 428.035L318.05 428.451L317.403 428.175C305.501 423.174 293.525 409.68 286.424 399.031Z"/>
	<path fill="#BE6A2E" d="M708.152 204.252C712.402 206.381 715.018 210.866 716.474 215.25C719.659 224.844 720.038 235.794 720.015 245.814C719.983 259.174 719.282 275.213 712.75 287.195C710.877 290.631 707.604 294.295 703.672 295.332C702.479 295.646 701.17 295.578 699.946 295.547C700.448 294.193 700.341 293.565 699.914 292.182C695.234 277.044 693.754 261.557 694.897 245.75C695.233 241.091 695.308 236.272 696.308 231.692C697.873 224.517 701.243 217.693 701.225 210.323L699.633 212.058C700.48 210.074 702.235 206.361 704.279 205.406C705.638 204.77 705.923 204.777 707.447 205.008L708.152 204.252Z"/>
	<defs>
		<linearGradient id="gradient_4" gradientUnits="userSpaceOnUse" x1="437.72974" y1="479.83777" x2="402.78625" y2="441.33273">
			<stop offset="0" stop-color="#AB2E09"/>
			<stop offset="1" stop-color="#CE7F4E"/>
		</linearGradient>
	</defs>
	<path fill="url(#gradient_4)" d="M401.174 443.18C404.46 440.653 408.016 437.72 411.935 436.279C416.339 434.66 421.15 434.813 425.767 434.85C428.46 437.92 435.632 441.018 439.687 441.826L440.039 441.783C442.31 443.495 443.977 445.017 445.38 447.508L448.167 452.207L450.301 457.565C451.366 458.618 451.82 459.14 452.264 460.625C451.302 460.752 451.77 460.717 450.861 460.739C451.111 462.166 451.028 462.539 451.966 463.647L452.082 463.969L450.691 464.273C450.022 470.425 448.488 476.746 444.385 481.586L438.535 485.358C430.896 489.401 420.678 490.85 412.37 488.265C404.873 485.932 399.157 481.712 395.462 474.695L395.187 474.362C393.95 471.868 393.088 469.384 392.536 466.654C392.162 464.803 396.469 459.825 397.69 458.079C399.442 454.842 402.912 451.967 404.009 448.471L404.36 447.695C404.138 445.73 402.562 444.423 401.174 443.18Z"/>
	<path fill="#BA481F" d="M450.301 457.565C451.366 458.618 451.82 459.14 452.264 460.625C451.302 460.752 451.77 460.717 450.861 460.739C451.111 462.166 451.028 462.539 451.966 463.647L452.082 463.969L450.691 464.273C450.022 470.425 448.488 476.746 444.385 481.586L438.535 485.358C430.896 489.401 420.678 490.85 412.37 488.265C404.873 485.932 399.157 481.712 395.462 474.695C396.316 475.007 396.616 475.166 397.211 475.9L397.653 476.503L398.25 476.255C398.748 476.692 398.984 476.955 399.271 477.564C399.767 478.614 400.308 479.66 401.121 480.504C402.075 481.494 402.904 482.66 404.125 483.326L405.607 484.124C406.529 484.691 407.322 485.222 408.36 485.568L409 485.755C410.899 486.69 408.659 485.896 410.466 486.502L412.5 487.255C413.381 487.648 413.861 487.801 414.825 487.783L415.75 487.755L416.5 488.25C417.908 488.268 419.85 488.55 421.125 488.002C423.252 487.089 420.886 487.829 422.75 487.255C423.822 486.925 423.344 487.151 424.141 486.752C426.079 485.783 428.326 485.351 430.267 484.379L431.002 484.002C433.047 483.143 435.809 481.993 437.393 480.409C439.148 478.654 440.441 476.427 442.078 474.565L442.998 473.498C443.876 471.968 442.501 473.478 443.809 472.171C444.733 471.247 445.533 470.341 446.26 469.25L446.745 468.5C447.73 467.023 448.356 465.504 449.245 464L449.745 463.25C449.718 461.618 449.765 459.99 450.114 458.391L450.301 457.565Z"/>
	<path fill="#C992A7" d="M419.33 440.198L421.367 440.081C423.423 440.065 425.307 440.249 426.75 441.71L426.611 443C422.848 448.051 418.252 455.358 412.052 457.097C409.703 456.829 407.522 456.471 405.25 455.801C404.081 454.664 403.512 454.377 403.168 452.75C404.141 450.212 404.911 447.25 406.598 445.091C409.569 441.285 414.832 440.671 419.33 440.198Z"/>
	<path fill="#C78882" d="M327.492 370.079L328.422 368C330.345 364.108 333.709 361.283 337.858 359.996C340.107 359.298 343.928 359.016 346.033 360.197L346.5 360.484C349.237 362.123 351.155 364.766 352.928 367.365C353.956 368.69 354.978 369.933 355.699 371.455C358.894 375.028 361.609 379.145 364.456 383.004C367.939 387.726 371.79 392.609 374.342 397.911C377.526 402.269 379.222 406.348 379.282 411.801L378.985 412.735C375.081 415.11 373.477 419.692 370.704 423.175C366.248 428.77 359.369 433.37 355.477 439.235C353.525 440.788 351.328 442.379 349.089 443.493C343.723 446.164 338.127 446.436 332.484 444.437C326.386 442.277 322.791 438.715 319.988 432.978C319.916 431.554 319.901 430.139 319.551 428.75L318.05 428.451L319.5 428.035C320.567 426.842 320.844 425.405 321.275 423.905C321.744 422.89 322.265 421.877 322.967 421C324.958 418.511 327.701 416.303 329.412 413.642C330.448 412.031 330.798 409.996 331.566 408.25C332.829 405.377 334.996 403.157 337.097 400.881L340.946 397.499C335.446 390.355 326.577 379.538 327.492 370.079Z"/>
	<path fill="#DDB793" d="M355.394 390.1C358.583 389.876 361.589 389.512 364.579 390.934L364.104 391.125C363.335 391.41 363.623 391.316 362.688 391.408C362.162 392.317 361.789 392.98 361.5 394C357.034 397.412 353.677 401.395 349.583 405.111C346.02 408.345 342.136 411.228 338.678 414.581C335.566 417.6 332.68 421.378 329.299 424.053C327.971 425.104 326.359 425.701 324.768 426.22L324.13 425.087C332.597 418.158 339.562 408.72 347.459 401.083C349.921 398.703 355.489 395.547 356.841 392.75L355.755 391.75C356.84 391.386 357.921 391.807 359.25 391.5L360.125 391.752C360.918 391.122 360.698 391.516 360.875 390.625C359.698 390.525 358.608 390.44 357.436 390.643C356.637 390.781 355.956 390.851 355.15 390.863L355.394 390.1Z"/>
	<path fill="#C5753B" d="M327.492 370.079C332.893 368.736 335.805 363.32 341.094 361.566C342.373 361.142 342.454 361.512 343.598 362.069L347.135 365.041C348.032 370.051 353.898 375.578 356.982 379.69C358.899 382.246 360.341 385.011 362.394 387.505L362.634 387.573C363.522 388.699 364.166 389.589 365.503 390.217L364.579 390.934C361.589 389.512 358.583 389.876 355.394 390.1L353.844 390.077C349.033 391.79 345.405 394.18 341.533 397.476L340.946 397.499C335.446 390.355 326.577 379.538 327.492 370.079Z"/>
	<defs>
		<linearGradient id="gradient_5" gradientUnits="userSpaceOnUse" x1="361.44568" y1="431.76035" x2="339.04373" y2="413.0708">
			<stop offset="0" stop-color="#C0512D"/>
			<stop offset="1" stop-color="#C77941"/>
		</linearGradient>
	</defs>
	<path fill="url(#gradient_5)" d="M319.988 432.978C324.126 429.705 329.281 428.193 333.244 424.806L354.476 405.357C357.323 402.629 361.017 397.31 364.393 395.701C366.801 397.601 369.366 399.494 371.335 401.865C373.836 404.877 375.597 409.422 378.902 411.575L379.282 411.801L378.985 412.735C375.081 415.11 373.477 419.692 370.704 423.175C366.248 428.77 359.369 433.37 355.477 439.235C353.525 440.788 351.328 442.379 349.089 443.493C343.723 446.164 338.127 446.436 332.484 444.437C326.386 442.277 322.791 438.715 319.988 432.978Z"/>
	<defs>
		<linearGradient id="gradient_6" gradientUnits="userSpaceOnUse" x1="524.22339" y1="784.20251" x2="471.27139" y2="775.50403">
			<stop offset="0" stop-color="#D18D43"/>
			<stop offset="1" stop-color="#CC93A7"/>
		</linearGradient>
	</defs>
	<path fill="url(#gradient_6)" d="M478.306 731.268C485.753 736.755 492.36 738.944 501.54 739.703C508.57 739.794 513.715 739.167 520.374 737.011L518.902 787.214L519.033 808.386C522.757 808.256 527.677 807.697 530.651 810.403L532.125 811.934L532.123 811.97L531.706 812.657C531.29 813.367 531.014 813.982 530.745 814.75C527.217 817.938 522.885 819.331 518.632 821.351C515.669 823.946 501.098 826.088 496.828 826.297L498.19 825.241L497.857 823.876L495.75 824.5L495.679 825.75C494.715 825.793 493.732 826.03 492.871 825.575C490.589 823.713 486.779 824.396 485.04 821.722C484.182 820.404 484.427 820.217 484.764 818.75L486.605 817.505L487.055 817.25C487.105 815.928 487.239 814.537 486.982 813.232L486.843 812.588L478.306 731.268Z"/>
	<path fill="#C5753B" d="M519.524 816.465L520.08 817.751L517.028 820L517.265 820.808L518.632 821.351C515.669 823.946 501.098 826.088 496.828 826.297L498.19 825.241L497.857 823.876L498.419 823.892C501.748 824.146 505.085 823.2 508.25 822.29L508.683 821.503C509.654 821.079 510.713 820.96 511.75 820.755L511.084 820.145L512.25 818.448L513.855 818.792C515.212 818.954 516.451 818.425 517.476 817.573C518.213 816.961 518.62 816.764 519.524 816.465Z"/>
	<path fill="#DDB793" d="M519.524 816.465C518.901 815.065 518.641 814.087 518.572 812.558L518.341 796.596C518.351 793.485 518.107 790.24 518.902 787.214L519.033 808.386C522.757 808.256 527.677 807.697 530.651 810.403L532.125 811.934L532.123 811.97L531.706 812.657C531.29 813.367 531.014 813.982 530.745 814.75C527.217 817.938 522.885 819.331 518.632 821.351L517.265 820.808L517.028 820L520.08 817.751L519.524 816.465Z"/>
	<path fill="#C78882" d="M653.464 747.719L657.44 745.221L658.092 837.471C661.167 838.364 663.142 840.004 664.843 842.691C662.144 845.36 659.724 847.711 655.75 848.132C655.096 847.239 655.302 847.672 655.026 846.889C656.724 846.172 658.026 844.944 659.428 843.773L658.078 843.037C657.124 844.076 656.295 844.476 655.049 845.079L653.757 844.607C652.213 843.869 651.768 843.642 649.985 843.725C649.234 843.76 648.967 843.444 648.328 843.071C647.912 843.615 648.099 843.407 647.607 843.902C646.946 844.567 644.971 844.254 644 844.255L643.255 844.75L642.49 844.504L642.037 843.503C641.5 844.891 640.941 846.452 639.857 847.514C637.382 849.938 634.689 849.367 631.5 849.255L630.75 848.774C629.55 848.859 629.035 848.581 627.997 848.003L628 847.245L629.245 846.25L628.284 843.69C627.75 844.398 627.172 844.923 626.5 845.5C626.026 844.107 626.008 842.895 625.743 841.5C625.372 839.546 625.516 837.427 624.992 835.574C624.651 834.366 624.966 833.387 624.738 832.25C624.443 830.78 624.182 829.917 624.188 828.356C624.191 827.363 623.489 826.641 622.962 825.81L613.392 749.902C627.269 754.208 640.159 753.466 653.464 747.719Z"/>
	<defs>
		<linearGradient id="gradient_7" gradientUnits="userSpaceOnUse" x1="660.25537" y1="922.12115" x2="591.66089" y2="862.64185">
			<stop offset="0" stop-color="#B95112"/>
			<stop offset="1" stop-color="#E0A569"/>
		</linearGradient>
	</defs>
	<path fill="url(#gradient_7)" d="M622.962 825.81C623.489 826.641 624.191 827.363 624.188 828.356C624.182 829.917 624.443 830.78 624.738 832.25C624.966 833.387 624.651 834.366 624.992 835.574C625.516 837.427 625.372 839.546 625.743 841.5C626.008 842.895 626.026 844.107 626.5 845.5C627.172 844.923 627.75 844.398 628.284 843.69L629.245 846.25L628 847.245L627.997 848.003C629.035 848.581 629.55 848.859 630.75 848.774L631.5 849.255C634.689 849.367 637.382 849.938 639.857 847.514C640.941 846.452 641.5 844.891 642.037 843.503L642.49 844.504L643.255 844.75L644 844.255C644.971 844.254 646.946 844.567 647.607 843.902C648.099 843.407 647.912 843.615 648.328 843.071C648.967 843.444 649.234 843.76 649.985 843.725C651.768 843.642 652.213 843.869 653.757 844.607L655.049 845.079C656.295 844.476 657.124 844.076 658.078 843.037L659.428 843.773C658.026 844.944 656.724 846.172 655.026 846.889C655.302 847.672 655.096 847.239 655.75 848.132C659.724 847.711 662.144 845.36 664.843 842.691C669.224 850.471 671.62 858.572 674.018 867.131C676.818 877.125 679.726 887.853 677.634 898.25L677.492 898.979C675.512 908.373 666.38 915.117 658.754 919.923C641.735 930.647 621.121 940.834 600.597 940.985C596.558 941.014 592.466 940.964 588.517 940.033C587.159 939.713 585.849 939.362 584.567 938.803L583.04 938.007C579.125 935.435 578.296 932.161 577.485 927.866C577.474 923.509 577.625 918.897 578.667 914.648C580.849 905.743 586.452 896.694 591.817 889.377C592.472 886.986 596.168 882.9 597.668 880.759L619.382 849.097C620.643 847.291 623.424 844.996 624.25 843.18C624.557 842.506 624.631 841.323 624.786 840.569L622.962 825.81Z"/>
	<path fill="#BA481F" d="M658.078 843.037L659.428 843.773C658.026 844.944 656.724 846.172 655.026 846.889L652.818 847.512C649.552 848.56 646.502 849.066 643.068 848.768L643.543 848.075C645.406 846.317 652.373 845.39 655.049 845.079C656.295 844.476 657.124 844.076 658.078 843.037Z"/>
	<path fill="#C78882" d="M607.294 905.16L607.721 904.9C609.568 903.74 610.5 902.756 610.977 900.601L611.096 900.044C611.29 899.267 611.722 898.816 612.25 898.245C612.25 899.256 612.306 898.755 612.08 899.748L612.981 900.5L613.25 901.255L612.755 902L612.002 904.003L611.629 904.736C611.291 905.412 611.161 905.792 611.003 906.503L610.843 907.169L610.509 908.836C608.462 910.856 606.667 912.47 604.214 913.986C603.199 914.614 602.397 915.365 601.522 916.164C600.857 916.772 601.159 916.525 600.269 917.061L607.294 905.16Z"/>
	<path fill="#DDB793" d="M624.786 840.569C625.119 842.993 625.368 845.312 625.356 847.769C623.945 847.682 623.631 847.586 622.409 848.25C620.469 851.692 620.74 856.227 620.301 860.087C619.832 864.208 618.973 868.567 617.682 872.515C615.767 883.47 611.97 895.077 607.294 905.16L600.269 917.061C598.809 918.447 597.821 919.241 595.895 919.871C593.003 920.595 590.038 920.454 587.079 920.448C586.66 917 586.442 912.965 587.614 909.649C588.729 906.496 590.025 903.407 591.452 900.381C592.247 898.693 593.517 896.91 593.979 895.125L593.375 895.375L593 896.25L592.25 896.255L591.191 892.277C591.582 891.516 591.683 891.099 591.763 890.217L591.817 889.377C592.472 886.986 596.168 882.9 597.668 880.759L619.382 849.097C620.643 847.291 623.424 844.996 624.25 843.18C624.557 842.506 624.631 841.323 624.786 840.569Z"/>
	<defs>
		<linearGradient id="gradient_8" gradientUnits="userSpaceOnUse" x1="510.88287" y1="894.59711" x2="469.91498" y2="842.61853">
			<stop offset="0" stop-color="#BF5824"/>
			<stop offset="1" stop-color="#D5883C"/>
		</linearGradient>
	</defs>
	<path fill="url(#gradient_8)" d="M486.843 812.588L486.982 813.232C487.239 814.537 487.105 815.928 487.055 817.25L486.605 817.505L484.764 818.75C484.427 820.217 484.182 820.404 485.04 821.722C486.779 824.396 490.589 823.713 492.871 825.575C493.732 826.03 494.715 825.793 495.679 825.75L495.75 824.5L497.857 823.876L498.19 825.241L496.828 826.297C501.098 826.088 515.669 823.946 518.632 821.351C522.885 819.331 527.217 817.938 530.745 814.75C531.014 813.982 531.29 813.367 531.706 812.657L532.123 811.97C537.894 821.058 539.999 832.631 541.408 843.161C542.289 849.74 542.959 856.714 541.394 863.247C538.841 873.909 529.525 881.287 520.5 886.498C501.44 897.503 476.386 907.462 454.1 907.58C448.665 907.608 443.009 907.322 437.75 905.829C434.797 904.991 431.283 903.463 429.58 900.75C428.973 899.782 428.571 898.63 428.18 897.56L428.019 897.169C426.132 891.442 428.906 883.111 431.546 878C439.15 863.286 451.575 851.126 462.234 838.608C468.47 831.283 474.239 823.126 481.505 816.75C482.754 815.655 484.239 815.105 485.805 814.625L486.25 814.494L486.843 812.588Z"/>
	<path fill="#C5753B" d="M481.309 862.503C481.243 863.293 481.333 865.083 481.04 865.74C480.6 866.729 478.562 867.068 478.875 868.375L479.354 867.99L481.328 866.66L482.25 867C483.268 865.938 483.921 865.405 485.125 864.625L491.75 858C491.75 860.374 482.532 868.679 480.41 871.089C478.587 873.158 476.864 875.334 474.925 877.297C471.901 880.357 465.871 885.604 461.438 885.561L460.884 885.526L460.625 884.625L461.875 883.247C461.052 883.538 460.412 883.896 459.679 884.368C458.39 884.35 458.014 884.062 456.989 884.906C455.257 886.332 453.898 887.027 451.74 887.54L450.755 887.814C446.491 888.95 441.868 887.385 437.511 888.724L436.872 888.417C435.921 887.969 436.301 888.133 435.256 887.772L435.033 888.172L434.692 888.758L434.326 889.455C433.622 890.564 432.541 891.247 431.495 892C430.973 894.443 431.642 896.66 430.327 898.818L429.134 897.218C429.137 895.558 428.89 893.147 429.505 891.601C430.645 888.737 432.312 885.997 434.102 883.5L434.448 883.774L433.547 886.047C434.313 886.399 434.917 886.593 435.75 886.755L436.25 886.255C437.514 886.255 436.934 886.362 438 886L438.25 885.09C438.555 885.716 438.857 886.287 439.246 886.867L439.582 887.351C444.617 887.589 449.323 887.595 453.927 885.325C455.438 884.85 456.954 883.678 458.408 882.963C460.88 881.748 463.907 880.594 466.083 878.944C471.904 874.533 476.999 868.341 481.309 862.503Z"/>
	<path fill="#DDB793" d="M486.843 812.588L486.982 813.232C487.239 814.537 487.105 815.928 487.055 817.25L486.605 817.505L484.764 818.75C484.427 820.217 484.182 820.404 485.04 821.722C486.779 824.396 490.589 823.713 492.871 825.575C490.629 826.581 489.944 827.049 489.042 829.518C487.675 833.255 486.753 837.102 485.145 840.755C480.829 850.561 474.303 860.466 467.466 868.687C465.836 870.647 464.274 873.039 462.368 874.724C459.766 878.486 457.251 882.15 453.927 885.325C449.323 887.595 444.617 887.589 439.582 887.351L439.246 886.867C438.857 886.287 438.555 885.716 438.25 885.09L438 886C436.934 886.362 437.514 886.255 436.25 886.255L435.75 886.755C434.917 886.593 434.313 886.399 433.547 886.047L434.448 883.774L434.102 883.5C432.312 885.997 430.645 888.737 429.505 891.601C428.89 893.147 429.137 895.558 429.134 897.218L428.624 896.859L428.18 897.56L428.019 897.169C426.132 891.442 428.906 883.111 431.546 878C439.15 863.286 451.575 851.126 462.234 838.608C468.47 831.283 474.239 823.126 481.505 816.75C482.754 815.655 484.239 815.105 485.805 814.625L486.25 814.494L486.843 812.588Z"/>
	<path fill="#C992A7" d="M387.992 246.667L387.612 247.34C380.102 250.88 372.14 254.198 363.889 255.5C344.627 258.538 326.075 253.303 310.5 241.94C303.721 236.994 297.608 229.743 293.177 222.595C284.68 208.891 281.422 190.67 285.245 174.984C289.205 158.732 299.432 145.021 313.765 136.451C327.979 127.952 348.05 125.59 364.037 129.659L365 129.909C376.086 132.717 386.43 139.084 394.749 146.778L394.667 146.31C394.068 144.462 391.285 142.627 389.784 141.398L387.195 139.539C385.199 137.942 382.549 136.498 380.248 135.375L376.156 133.312C375.352 132.91 375.671 133.064 374.836 132.786C372.837 132.12 371.033 131.146 369 130.5L365.811 129.268C370.028 129.084 374.248 129.009 378.448 129.479C381.754 129.849 384.748 129.779 388.059 130.498C394.339 131.863 398.966 134.889 404.33 138.181C406.162 139.305 407.603 140.997 409.548 141.892C411.586 142.83 413.235 144.571 414.817 146.12C421.549 152.709 427.074 161.076 430.126 170.016C432.194 176.075 434.061 183.768 433.452 190.182C433.163 204.259 429.713 217.573 419.225 227.577C416.128 230.532 412.529 232.542 408.834 234.652C415.858 239.82 424.063 244.496 430.047 250.826C431.281 252.131 432.693 253.88 432.865 255.75C432.94 256.559 432.709 257.427 432.532 258.211L432.324 259.154L429.865 263.002C428.725 263.933 427.326 264.733 425.851 264.946C420.631 265.699 402.686 254.861 397.209 251.864C394.105 250.166 390.835 248.794 387.992 246.667Z"/>
	<defs>
		<linearGradient id="gradient_9" gradientUnits="userSpaceOnUse" x1="639.44745" y1="341.48444" x2="530.26514" y2="167.4796">
			<stop offset="0" stop-color="#A24209"/>
			<stop offset="1" stop-color="#CF7D40"/>
		</linearGradient>
	</defs>
	<path fill="url(#gradient_9)" d="M582.629 132.424C583.674 133.225 584.539 133.797 585.76 134.33C622.763 135.714 658.741 150.761 684.116 178.046C688.281 182.525 692.123 187.292 695.618 192.313C697.931 195.634 699.953 199.295 702.404 202.5C702.95 203.213 703.037 203.366 703.88 203.605C705.614 203.551 706.79 203.116 708.152 204.252L707.447 205.008C705.923 204.777 705.638 204.77 704.279 205.406C702.235 206.361 700.48 210.074 699.633 212.058L701.225 210.323C701.243 217.693 697.873 224.517 696.308 231.692C695.308 236.272 695.233 241.091 694.897 245.75C693.754 261.557 695.234 277.044 699.914 292.182C700.341 293.565 700.448 294.193 699.946 295.547L696.535 296.056C695.022 297.353 694.793 299.308 694.162 301.11C693.34 303.459 692.29 305.754 691.137 307.958C683.923 321.744 671.174 329.979 657.265 335.993C653.586 337.584 649.508 339.465 645.593 340.318C640.512 342.226 634.327 344.557 628.958 345.293C623.626 347.041 618.013 348.036 612.5 349.049C595.027 352.256 576.553 353.055 558.856 351.629L536.036 348.756C535.686 348.311 534.885 346.993 534.457 346.75C533.318 346.104 531.051 345.86 529.754 345.556C526.675 344.835 523.624 343.881 520.611 342.923L519.283 343.09L507.502 339.289C504.782 338.679 502.199 337.689 499.581 336.749C496.181 334.042 491.464 332.279 487.75 329.922C478.374 323.97 467.891 313.162 464.725 302.393C461.82 297.619 458.289 293.358 456.115 288.122L452.062 268.292L451.342 266.533L449.463 262.311L449.461 241.913C449.487 232.793 451.836 223.632 455.534 215.356L456.633 212.929C462.398 199.095 470.2 185.814 480.581 174.959C499.247 155.443 523.777 143.436 549.885 137.439C557.536 135.682 565.06 134.194 572.929 134.034L573.656 134.145L575.905 133.521C578.013 133.428 580.878 133.688 582.629 132.424Z"/>
	<path fill="#C5753B" d="M464.725 302.393C467.41 305.11 470.041 308.033 473.184 310.222C481.346 315.939 490.863 318.44 500.448 320.807C528.721 327.194 557.691 325.704 586.319 323.438L586.169 324.162C579.644 324.586 573.004 326.008 566.411 326.546C551.728 327.742 536.415 327.325 521.767 325.789C518.334 325.429 513.788 325.547 510.5 324.687C507.43 323.883 503.944 324.102 500.683 323.467C498.82 323.105 497.088 322.534 495.292 321.933L494.824 322.007L493.752 321.625C486.934 319.714 479.563 317.395 474.023 312.831L473.751 313.145C474.256 314.036 474.775 315.225 475.543 315.907C476.537 316.791 477.553 317.799 478.744 318.395C479.789 318.918 480.64 319.545 481.575 320.24C482.257 322.913 490.008 328.413 492.5 330.059C497.192 333.159 503.29 335.715 507.502 339.289C504.782 338.679 502.199 337.689 499.581 336.749C496.181 334.042 491.464 332.279 487.75 329.922C478.374 323.97 467.891 313.162 464.725 302.393Z"/>
	<path fill="#B03115" d="M686.411 290.998C684.64 289.952 683.381 288.785 682.222 287.072C673.785 274.605 674.865 257.057 677.483 243C679.078 234.438 682.025 217.496 689.653 212.274L690.836 212.946L686.451 223.86C686.069 225.209 685.516 228.7 684.653 229.622L684.32 231.319C682.976 236.285 681.691 243.198 682.065 248.312C680.495 264.05 682.876 277.741 688.864 292.215L688.254 292.795L686.411 290.998Z"/>
	<path fill="#C5753B" d="M687.416 297.96C687.809 296.614 688.781 295.836 689.75 294.885C692.277 294.929 694.232 294.873 696.535 296.056C695.022 297.353 694.793 299.308 694.162 301.11C693.34 303.459 692.29 305.754 691.137 307.958C683.923 321.744 671.174 329.979 657.265 335.993C653.586 337.584 649.508 339.465 645.593 340.318C640.512 342.226 634.327 344.557 628.958 345.293C631.284 340.785 641.122 340.264 645.399 337.134C651.126 332.941 657.3 329.857 663.377 326.244C665.209 325.155 668.2 322.729 670.205 322.332C672.189 321.938 673.207 318.827 675.705 318.332C676.444 318.185 677.082 317.672 677.503 317.002C678.221 315.857 678.77 315.333 679.821 314.382L681.003 312.502C681.447 311.409 682.423 310.46 682.676 309.454L682.755 309C683.323 307.814 683.063 307.192 684 306.255L684.466 307.254C684.218 308.24 683.973 308.752 684.25 309.755L685.003 308.502C685.458 307.494 685.614 306.713 686.25 305.755L686.839 306.272L686.5 307.75L687.839 307.16C688.875 306.617 689.42 305.828 689.783 304.737L690.003 304.002L690.255 303.25L689.753 302.625L688.781 303.031L688.26 305.746L687.416 305.64C687.28 303.836 687.067 303.736 688.25 302.255L687.42 301.644L687.255 300L687.75 299.255L687.416 297.96Z"/>
	<defs>
		<linearGradient id="gradient_10" gradientUnits="userSpaceOnUse" x1="538.8338" y1="326.02286" x2="537.71539" y2="310.17422">
			<stop offset="0" stop-color="#962209"/>
			<stop offset="1" stop-color="#B04024"/>
		</linearGradient>
	</defs>
	<path fill="url(#gradient_10)" d="M585.695 317.321L596.5 315.755L598 315.396C600.214 315.489 600.977 315.732 602.5 317.25C602.851 316.218 602.609 316.72 603.25 315.755L605 316.75L606.125 316.002L607.25 316.255L607.75 315.755C608.917 315.755 609.68 315.62 610.784 315.252L612.25 314.755L615.72 313.847L616.25 313.755L616.75 313.255C618.578 312.906 619.822 312.199 621.503 311.502C622.84 310.948 623.786 310.644 625 309.755L626.003 309.002C627.815 308.133 629.565 306.149 630.848 304.548L631.255 304L634.003 300.125L634.755 299C635.405 297.424 634.597 298.723 635.348 297.601C636.101 296.474 636.488 295.066 637.255 294L637.75 293.5L637.755 292.5L638.25 292L638.255 291L638.75 290.5C638.717 289.579 638.655 288.892 639.005 288.016L639.255 287.5C638.91 286.662 638.813 285.855 639.255 285C639.794 283.957 639.75 284.153 639.755 283C640.353 282.1 640.46 281.577 640.597 280.503L640.755 279C641.259 277.76 641.269 277.462 641.302 276.075L642.014 275.692C642.234 281.691 640.73 287.493 638.695 293.083C639.217 292.951 639.941 292.935 640.272 292.5C640.116 294.979 638.955 298.178 637.579 300.248L637.239 300.819C636.588 301.716 635.836 301.665 635 302.25C634.655 302.491 634.482 302.929 634.25 303.255L632.626 305.251C631.672 306.417 632.332 305.557 631.691 306.593C630.685 308.217 629.093 309.499 627.531 310.544L626.71 311.146C618.011 317.383 604.214 320.03 593.819 321.849C592.489 322.082 587.026 322.638 586.319 323.438C557.691 325.704 528.721 327.194 500.448 320.807C490.863 318.44 481.346 315.939 473.184 310.222C472.671 309.173 472.391 308.319 472.186 307.17C475.622 310.02 478.877 312.187 483 313.943L484.641 313.299C497.062 318.88 512.197 321.635 525.764 322.119C530.142 320.99 535.446 321.67 540 321.57L561.5 320.141C567.551 319.589 573.651 319.632 579.525 317.867L585.695 317.321Z"/>
	<path fill="#C5753B" d="M585.695 317.321L596.5 315.755L598 315.396C600.214 315.489 600.977 315.732 602.5 317.25C602.851 316.218 602.609 316.72 603.25 315.755L605 316.75L606.125 316.002L607.25 316.255L607.75 315.755C608.917 315.755 609.68 315.62 610.784 315.252L612.25 314.755L615.72 313.847L616.25 313.755L616.75 313.255C618.578 312.906 619.822 312.199 621.503 311.502C622.84 310.948 623.786 310.644 625 309.755L626.003 309.002C627.815 308.133 629.565 306.149 630.848 304.548L631.255 304L634.003 300.125L634.755 299C635.405 297.424 634.597 298.723 635.348 297.601C636.101 296.474 636.488 295.066 637.255 294L637.75 293.5L637.755 292.5L638.25 292L638.255 291L638.75 290.5C638.717 289.579 638.655 288.892 639.005 288.016L639.255 287.5C638.91 286.662 638.813 285.855 639.255 285C639.794 283.957 639.75 284.153 639.755 283C640.353 282.1 640.46 281.577 640.597 280.503L640.755 279C641.259 277.76 641.269 277.462 641.302 276.075L642.014 275.692C642.234 281.691 640.73 287.493 638.695 293.083L638.351 293.753C635.307 299.748 632.374 305.913 626.705 309.984C623.681 312.156 619.915 313.419 616.409 314.598C603.481 318.943 588.479 321.367 574.888 322.149C568.273 323.026 561.32 323.044 554.655 323.123C545.051 323.237 535.323 323.142 525.764 322.119C530.142 320.99 535.446 321.67 540 321.57L561.5 320.141C567.551 319.589 573.651 319.632 579.525 317.867L585.695 317.321Z"/>
	<defs>
		<linearGradient id="gradient_11" gradientUnits="userSpaceOnUse" x1="668.89557" y1="274.20499" x2="720.61749" y2="238.1129">
			<stop offset="0" stop-color="#A3521A"/>
			<stop offset="1" stop-color="#C16C21"/>
		</linearGradient>
	</defs>
	<path fill="url(#gradient_11)" d="M703.88 203.605C705.614 203.551 706.79 203.116 708.152 204.252L707.447 205.008C705.923 204.777 705.638 204.77 704.279 205.406C702.235 206.361 700.48 210.074 699.633 212.058L701.225 210.323C701.243 217.693 697.873 224.517 696.308 231.692C695.308 236.272 695.233 241.091 694.897 245.75C693.754 261.557 695.234 277.044 699.914 292.182C700.341 293.565 700.448 294.193 699.946 295.547L696.535 296.056C694.232 294.873 692.277 294.929 689.75 294.885C688.781 295.836 687.809 296.614 687.416 297.96C686.497 298.217 686.299 298.251 685.416 298.14L685.25 296.5C685.185 295.248 685.339 296.247 685.16 295.167C685.033 294.396 684.965 294.836 685.503 294.002C687.038 293.555 688.68 293.873 690.25 294.017C690.893 293.362 691.251 293.331 691.247 292.375L690.08 291.918L688.864 292.215C682.876 277.741 680.495 264.05 682.065 248.312C681.691 243.198 682.976 236.285 684.32 231.319L684.653 229.622C685.516 228.7 686.069 225.209 686.451 223.86L690.836 212.946C691.769 211.696 692.495 210.291 693.268 208.938C694.611 207.488 696.015 205.539 697.911 204.858L699.025 205.594L702.204 204.19L703.88 203.605Z"/>
	<path fill="#C78882" d="M686.451 223.86C688.663 223.553 690.614 223.076 692.75 223.943C693.634 225.194 693.72 226.184 693.935 227.642L694.067 228.506L694.147 229.07C693.521 231.452 693.729 232.42 691.464 233.623C690.115 234.339 688.538 234.303 687.117 233.788C685.869 233.335 685.11 232.329 684.32 231.319L684.653 229.622C685.516 228.7 686.069 225.209 686.451 223.86Z"/>
	<path fill="#C5753B" d="M703.88 203.605C705.614 203.551 706.79 203.116 708.152 204.252L707.447 205.008C705.923 204.777 705.638 204.77 704.279 205.406C702.235 206.361 700.48 210.074 699.633 212.058C697.114 217.753 695.401 222.974 694.147 229.07L694.067 228.506L693.935 227.642C693.72 226.184 693.634 225.194 692.75 223.943C690.614 223.076 688.663 223.553 686.451 223.86L690.836 212.946C691.769 211.696 692.495 210.291 693.268 208.938C694.611 207.488 696.015 205.539 697.911 204.858L699.025 205.594L702.204 204.19L703.88 203.605Z"/>
	<path fill="#DDB793" d="M582.629 132.424C583.674 133.225 584.539 133.797 585.76 134.33C622.763 135.714 658.741 150.761 684.116 178.046C688.281 182.525 692.123 187.292 695.618 192.313C697.931 195.634 699.953 199.295 702.404 202.5C702.95 203.213 703.037 203.366 703.88 203.605L702.204 204.19L699.025 205.594L697.911 204.858L700.575 203.25C700.225 200.146 695.342 195.998 693.363 193.597C685.471 184.019 678.157 174.779 668.353 166.948C663.553 163.114 658.777 160.113 653.5 157.01C642.32 150.436 630.786 144.456 618.25 140.785C618.635 141.588 619.201 142.092 620.059 142.441L621.375 142.625L621.904 143.002C622.965 143.734 624.84 144.37 626.059 144.941L626.878 145.185C627.839 145.502 628.184 145.852 628.913 146.507C630.349 147.798 631.989 148.313 633.546 149.328C635.195 150.403 636.763 151.887 638.578 152.625C639.535 153.014 640.031 153.829 640.856 154.394C642.618 155.598 644.707 156.565 646.682 157.318C647.625 157.678 648.462 158.284 649.256 158.885C650.728 159.999 652.49 160.604 654.181 161.294C655.173 161.699 655.636 162.37 656.312 163.169C650.244 162.113 642.342 154.266 635.867 157.341C634.569 157.957 634.342 157.629 632.976 157.699C630.672 157.818 627.263 159.479 625.356 160.688L614.262 166.584C608.338 169.622 603.131 175.404 598.014 179.612C597.008 180.439 597.451 180 596.733 181.038C595.725 182.495 594.237 183.155 593.169 184.635C591.787 186.55 589.92 188.061 588.502 190.002L587.905 190.774C587.448 191.373 587.124 191.881 586.756 192.528C585.157 195.332 583.353 198.339 582.421 201.44C582.111 202.473 582.346 202.061 581.75 202.739C580.53 204.129 580.992 205.963 579.25 206.755L578.793 206.505C576.486 205.582 573.26 207.082 571.25 205.755C570.402 205.798 569.74 205.832 568.93 206.093C567.174 206.657 564.496 206.382 562.626 206.399L545.48 206.032L490.679 206.416L481.215 206.438C478.091 206.345 475.402 205.754 472.453 207.008C468.548 208.668 465.151 208.196 461.461 211.081L455.534 215.356L456.633 212.929C462.398 199.095 470.2 185.814 480.581 174.959C499.247 155.443 523.777 143.436 549.885 137.439C557.536 135.682 565.06 134.194 572.929 134.034L573.656 134.145L575.905 133.521C578.013 133.428 580.878 133.688 582.629 132.424Z"/>
	<path fill="#C78882" d="M582.629 132.424C583.674 133.225 584.539 133.797 585.76 134.33L585.871 134.747C587.409 138.291 588.102 142.808 587.75 146.649L586.498 146.998C585.397 149.162 585.191 148.934 583 149.676C581.01 149.448 579.547 148.347 577.899 147.301C577.296 145.912 576.351 144.632 575.556 143.342C573.572 140.119 572.001 137.94 572.929 134.034L573.656 134.145L575.905 133.521C578.013 133.428 580.878 133.688 582.629 132.424Z"/>
	<path fill="#C5753B" d="M582.629 132.424C583.674 133.225 584.539 133.797 585.76 134.33L585.871 134.747L585.923 136.214C586.046 138.285 585.686 139.984 584.662 141.831C584.031 142.968 583.938 142.992 582.75 143.319C579.602 142.099 578.026 139.638 575.891 137.221C575 136.213 574.325 135.317 573.656 134.145L575.905 133.521C578.013 133.428 580.878 133.688 582.629 132.424Z"/>
	<defs>
		<linearGradient id="gradient_12" gradientUnits="userSpaceOnUse" x1="632.6701" y1="302.7937" x2="465.14014" y2="220.17427">
			<stop offset="0" stop-color="#AE855A"/>
			<stop offset="1" stop-color="#CDC1BD"/>
		</linearGradient>
	</defs>
	<path fill="url(#gradient_12)" d="M464.511 211.148C468.996 210.091 472.687 209.903 477.28 210.091L476.52 210.246C473.478 210.899 472.021 212.018 469.75 214.05L468 215.639L467.338 216.231C465.615 218.03 464.361 221.46 463.635 223.857C467.045 220.842 469.536 214.925 473.888 213.152C480.082 210.628 486.438 210.777 493.016 210.639C526.635 208.955 560.722 210.138 594.255 212.75C599.902 213.19 605.747 214.002 611.287 215.185C613.614 215.681 615.944 216.3 618.207 217.036C620.646 217.828 622.324 219.137 625 218.502C630.786 220.74 634.827 226.718 637.239 232.188C639.346 236.967 640.395 241.953 641.247 247.077C642.18 256.266 643.219 266.506 642.014 275.692L641.302 276.075C641.269 277.462 641.259 277.76 640.755 279L640.597 280.503C640.46 281.577 640.353 282.1 639.755 283C639.75 284.153 639.794 283.957 639.255 285C638.813 285.855 638.91 286.662 639.255 287.5L639.005 288.016C638.655 288.892 638.717 289.579 638.75 290.5L638.255 291L638.25 292L637.755 292.5L637.75 293.5L637.255 294C636.488 295.066 636.101 296.474 635.348 297.601C634.597 298.723 635.405 297.424 634.755 299L634.003 300.125L631.255 304L630.848 304.548C629.565 306.149 627.815 308.133 626.003 309.002L625 309.755C623.786 310.644 622.84 310.948 621.503 311.502C619.822 312.199 618.578 312.906 616.75 313.255L616.25 313.755L615.72 313.847L612.25 314.755L610.784 315.252C609.68 315.62 608.917 315.755 607.75 315.755L607.25 316.255L606.125 316.002L605 316.75L603.25 315.755C602.609 316.72 602.851 316.218 602.5 317.25C600.977 315.732 600.214 315.489 598 315.396L596.5 315.755L585.695 317.321L579.525 317.867C573.651 319.632 567.551 319.589 561.5 320.141L540 321.57C535.446 321.67 530.142 320.99 525.764 322.119C512.197 321.635 497.062 318.88 484.641 313.299L483 313.943C478.877 312.187 475.622 310.02 472.186 307.17C472.391 308.319 472.671 309.173 473.184 310.222C470.041 308.033 467.41 305.11 464.725 302.393C461.82 297.619 458.289 293.358 456.115 288.122L452.062 268.292L451.342 266.533L449.463 262.311L449.461 241.913C449.487 232.793 451.836 223.632 455.534 215.356L461.461 211.081L464.511 211.148Z"/>
	<path fill="#C78882" d="M589.708 252.458C592.504 253.791 594.013 256.697 595.109 259.5C596.268 262.461 596.607 270.871 595.239 273.75C593.839 276.694 590.18 276.825 587.869 278.829L587.5 278L586.756 277.772L585.747 278.875L586.52 279.859C585.796 281.259 584.701 281.934 583.161 282.399C582.104 282.718 581.102 282.806 580 282.75L579.5 283.245C578.309 283.245 578.024 283.428 577 282.745L576.199 282.733C575.17 282.672 574.647 282.452 573.751 281.999C575.011 281.701 576.407 281.65 577.697 281.502L582.75 279.565C586.971 277.61 590.462 272.74 591.864 268.424C593.857 262.291 592.437 257.999 589.708 252.458Z"/>
	<path fill="#613822" d="M581.156 245.691C584.848 247.241 587.228 249.39 589.708 252.458C592.437 257.999 593.857 262.291 591.864 268.424C590.462 272.74 586.971 277.61 582.75 279.565L577.697 281.502C577.027 281.077 576.419 280.653 575.656 280.406L575.24 280.297L578 279.346C582.725 277.247 586.498 273.458 588.041 268.454C589.753 262.904 588.667 256.437 585.368 251.681C584.155 249.934 582.442 248.513 581.538 246.566L581.156 245.691Z"/>
	<path fill="#C78882" d="M462.373 280.342L463.101 281.046C464.056 282.007 464.232 282.762 464.623 284C466.118 288.724 468.328 293.829 471.037 297.987L471.464 298.656C473.746 302.098 476.855 305.906 480.25 308.334C482.594 310.01 485.626 311.07 488.296 312.135C493.605 314.253 498.755 315.922 504.373 317.038C506.463 317.454 508.706 317.62 510.83 317.563C516.889 318.298 522.892 319.008 529 319.192L565.001 318.633L579.525 317.867C573.651 319.632 567.551 319.589 561.5 320.141L540 321.57C535.446 321.67 530.142 320.99 525.764 322.119C512.197 321.635 497.062 318.88 484.641 313.299L481.727 311.544C471.447 304.987 464.832 291.972 462.373 280.342Z"/>
	<defs>
		<linearGradient id="gradient_13" gradientUnits="userSpaceOnUse" x1="507.44333" y1="266.66614" x2="478.99063" y2="256.95837">
			<stop offset="0" stop-color="#6B4638"/>
			<stop offset="1" stop-color="#83634C"/>
		</linearGradient>
	</defs>
	<path fill="url(#gradient_13)" d="M489.624 243.587L494.309 243.447C498.03 243.646 501.471 246.163 503.75 248.987C507.574 253.726 509.413 260.355 508.695 266.398L508.582 267.25C508.292 269.523 507.774 271.252 506.617 273.25C504.343 277.179 501.333 279.36 496.969 280.514C494.413 280.936 492.321 281.036 489.859 280.103C485.547 278.467 482.071 274.994 480.21 270.799C477.833 265.443 477.321 259.001 479.556 253.5C481.579 248.524 484.847 245.694 489.624 243.587Z"/>
	<path fill="#6E4D35" d="M572.214 244.177C574.611 244.313 579.198 244.123 581.156 245.691L581.538 246.566C582.442 248.513 584.155 249.934 585.368 251.681C588.667 256.437 589.753 262.904 588.041 268.454C586.498 273.458 582.725 277.247 578 279.346L575.24 280.297L575.656 280.406C576.419 280.653 577.027 281.077 577.697 281.502C576.407 281.65 575.011 281.701 573.751 281.999L567.96 280.77C562.937 277.603 559.013 273.931 557.463 267.968C556.08 262.647 556.886 256.948 559.866 252.306C562.916 247.553 566.901 245.394 572.214 244.177Z"/>
	<path fill="#BA481F" d="M464.511 211.148C468.996 210.091 472.687 209.903 477.28 210.091L476.52 210.246C473.478 210.899 472.021 212.018 469.75 214.05L468 215.639L467.338 216.231C465.615 218.03 464.361 221.46 463.635 223.857L462.587 227.353C460.985 231.724 460.493 236.727 460.06 241.338C458.82 254.519 459.461 267.407 462.373 280.342C464.832 291.972 471.447 304.987 481.727 311.544L484.641 313.299L483 313.943C478.877 312.187 475.622 310.02 472.186 307.17C472.391 308.319 472.671 309.173 473.184 310.222C470.041 308.033 467.41 305.11 464.725 302.393C461.82 297.619 458.289 293.358 456.115 288.122L452.062 268.292L451.342 266.533L449.463 262.311L449.461 241.913C449.487 232.793 451.836 223.632 455.534 215.356L461.461 211.081L464.511 211.148Z"/>
	<path fill="#C5753B" d="M455.534 215.356L461.461 211.081L464.511 211.148L460.375 214.682C454.78 220.195 452.5 228.592 452.343 236.301L452.395 236.703L452.062 268.292L451.342 266.533L449.463 262.311L449.461 241.913C449.487 232.793 451.836 223.632 455.534 215.356Z"/>
	<defs>
		<linearGradient id="gradient_14" gradientUnits="userSpaceOnUse" x1="689.49829" y1="559.28113" x2="461.24728" y2="557.8714">
			<stop offset="0" stop-color="#B05717"/>
			<stop offset="1" stop-color="#BF674B"/>
		</linearGradient>
	</defs>
	<path fill="url(#gradient_14)" d="M536.804 363.47L551.057 362.961L607.207 364.519C626.246 364.88 649.218 370.165 662.768 384.569C665.221 387.176 667.894 390.84 668.056 394.476L667.865 395.542C671.067 396.098 674.554 395.704 677.837 396.074C690.768 397.531 697.157 404.026 704.273 414.133L713.166 427.602C716.497 432.302 720.002 436.771 722.977 441.75C726.28 447.278 728.647 453.584 731.735 459.311C734.244 463.961 735.126 472.424 739.015 475.517C739.148 479.032 740.43 481.197 742.21 484.158C743.867 487.21 744.951 490.069 745.488 493.5L745.624 494.319C746.966 502.895 744.473 511.173 739.3 518.059C734.313 524.698 725.904 530.543 717.5 531.501C716.85 531.575 716.684 531.539 716.108 531.491C713.234 531.729 710.532 531.52 707.698 531.008C706.188 530.776 702.717 529.826 701.351 530.128C700.43 530.332 698.834 531.44 697.941 531.902C695.696 533.066 692.965 534.089 690.931 535.565L690.62 535.816L690.341 568.745C690.281 571.429 690.786 576.541 689.946 578.906C689.645 579.754 687.777 581.541 687.112 582.25C684.074 585.493 679.451 588.479 675.387 590.247L656.858 598.93L661.45 674.5L664.369 707.422C665.077 714.68 666.399 722.484 665.77 729.764C665.367 734.421 663.38 738.371 660.494 741.971L657.44 745.221L653.464 747.719C640.159 753.466 627.269 754.208 613.392 749.902C612.245 749.241 611.108 748.562 610.081 747.721C606.124 744.482 603.55 739.743 602.25 734.85C599.205 723.391 599.314 710.181 598.276 698.351L591.371 625.75C590.805 620.956 591.011 616.221 591.132 611.404L565.389 610.653C565.052 610.936 564.613 611.129 564.378 611.5C563.954 612.166 563.668 613.76 563.418 614.554L561.009 622.182L551.211 652.767C549.774 657.278 548.615 662.153 546.869 666.543C544.398 677.476 540.639 688.235 537.74 699.081L533.804 715.793C532.852 720.006 532.008 724.399 529.973 728.249C527.904 732.164 524.688 734.262 521.089 736.561L520.374 737.011C513.715 739.167 508.57 739.794 501.54 739.703C492.36 738.944 485.753 736.755 478.306 731.268C475.339 727.209 473.175 723.715 472.504 718.655C470.489 712.127 472.635 700.623 474.359 694.07L482.475 656.167C483.552 655.016 483.664 653.431 484.538 652.143L486.517 649.243C487.4 647.052 487.688 644.602 488.178 642.297L490.912 628.815L495.694 608.35C496.549 605.242 498.177 600.865 496.514 597.941C494.516 596.56 491.601 595.743 489.367 594.694C484.102 592.222 477.679 588.442 475.662 582.662L475.442 582C473.758 577.07 474.323 570.456 474.299 565.264L474.853 532.532L475.709 491.75L477.308 446.075L477.328 445.71L477.541 434.852C477.877 434.084 478.18 433.505 478.164 432.646C478.141 431.369 478.06 432.67 478.182 431.169L478.245 430.5C477.348 429.379 477.389 429.279 476 429L474.875 429.875L474.498 429.125C472.866 429.329 472.652 429.348 471.5 430.5L470.75 430C470.06 430.652 469.499 431.206 468.984 432.016C468.42 432.903 468.901 432.526 467.75 433C466.981 433.317 465.586 433.705 465 434.25C463.917 435.257 464.017 435.683 462.5 436.5C462.488 434.079 465.949 432.915 466.998 430.998C468.229 428.745 470.863 426.332 472.921 424.683C473.838 423.949 474.627 423.122 475.75 422.745L476.5 423.25L476.5 426.75L476.125 427.625L476.75 428.745L477.497 428.498L477.745 427.5C478.281 426.44 478.245 426.669 478.245 425.5C479.026 424.329 478.745 423.133 478.745 421.75L479.245 421C479.009 419.933 478.575 418.771 478.883 417.701C479.654 415.022 479.783 411.57 480.144 408.75L481.212 402.32L481.567 402.061C481.452 400.281 482.203 398.72 482.807 397.081L483.972 394.099L483.918 393.913L484.678 392.599C486.074 389.658 488.025 386.923 490.134 384.453C501.174 371.522 520.243 364.766 536.804 363.47Z"/>
	<path fill="#BE6A2E" d="M546.869 666.543C546.742 664.774 547.014 663.236 547.255 661.5C547.999 660.748 547.752 660.515 547.755 659.5L548.25 659L548.255 658C548.834 657.132 548.712 657.514 548.879 656.673C549.063 655.744 548.918 656.225 549.237 655.268L550.255 652.25C550.441 651.564 550.522 650.927 550.752 650.237L551.003 649.502L551.255 648.5L551.755 647.75C552.165 646.865 552.719 645.041 552.91 644.079L553.255 642.5L553.75 642L553.755 641L554.25 640.5L554.255 639.5C554.999 638.748 554.752 638.515 554.755 637.5L555.253 636.875C554.525 635.961 554.755 635.63 554.755 634.5L555.25 633.755L554.865 633.25L555.25 632.255L555.625 632.753L556.003 631.503L556.255 630.75L555.755 630.25C556.113 629.674 556.678 628.94 556.755 628.25C556.801 627.833 556.554 627.421 556.588 627.003C556.678 625.873 557.221 624.059 558 623.25L558.255 623.5L558.75 622.755C558.562 621.655 558.47 620.943 558.833 619.853C559.75 617.101 560.038 613.343 561.469 610.926C562.835 610.584 563.995 610.347 565.389 610.653C565.052 610.936 564.613 611.129 564.378 611.5C563.954 612.166 563.668 613.76 563.418 614.554L561.009 622.182L551.211 652.767C549.774 657.278 548.615 662.153 546.869 666.543Z"/>
	<defs>
		<linearGradient id="gradient_15" gradientUnits="userSpaceOnUse" x1="482.17581" y1="684.6004" x2="475.11554" y2="682.70984">
			<stop offset="0" stop-color="#C76F5F"/>
			<stop offset="1" stop-color="#CD9088"/>
		</linearGradient>
	</defs>
	<path fill="url(#gradient_15)" d="M482.475 656.167C483.552 655.016 483.664 653.431 484.538 652.143L486.517 649.243L484.904 658L478.163 688.06C478.206 689.89 478.172 691.223 477.696 693C476.554 697.269 475.674 702.129 475.079 706.5L474.049 715.026C474 715.434 473.93 717.365 473.735 717.645C473.432 718.081 472.915 718.319 472.504 718.655C470.489 712.127 472.635 700.623 474.359 694.07L482.475 656.167Z"/>
	<path fill="#B03115" d="M664.923 438.945C664.108 439.561 664.487 439.364 663.482 439.74L662.75 440L662.5 441.25C661.793 441.957 661.946 441.666 661.586 442.475L661.375 442.998L661.054 442.75L660.293 431.734C660.218 422.355 660.934 412.592 664.428 403.813C665.176 401.931 666.07 399.573 667.5 398.134L668.265 398.978C667.246 402.865 665.646 406.602 664.776 410.518C663.811 414.863 663.816 419.584 664.3 423.993C665.521 428.815 667.257 433.102 669.48 437.549C669.688 440.105 669.333 441.839 668.487 444.25L668.125 444.482C667.773 443.928 667.51 443.71 667.486 443.042C667.448 442.025 667.46 441.185 667 440.25L667.5 439.5C666.877 439.497 666.357 439.618 665.75 439.745L664.923 438.945Z"/>
	<path fill="#BA481F" d="M551.057 362.961L607.207 364.519C609.381 365.044 610.748 365.69 612.517 367.061C609.1 367.304 605.271 366.701 601.822 366.565C587.074 365.985 571.629 364.174 556.997 366.55C554.58 368.326 551.803 366.889 549.125 367.625C548.513 367.793 547.983 368.195 547.375 368.375C546.729 368.567 545.535 368.253 545 368.5C544.516 368.724 544.24 369.288 543.75 369.5C542.064 370.229 539.145 368.838 537.134 369.844C535.683 370.569 537.38 369.977 535.719 370.531L535 370.75C533.575 371.207 531.983 370.948 530.503 370.875C531.042 369.878 534.307 368.387 535.493 367.987C537.113 367.439 538.639 366.616 540.176 365.868C544.005 365.306 547.815 365.279 551.057 362.961Z"/>
	<path fill="#DDB793" d="M517.315 464.692L517.918 462.5C518.22 461.425 518.485 460.224 519.047 459.25C520.381 456.939 522.98 455.358 525.479 454.665C530.472 453.279 536.112 453.314 541.262 452.816L578.431 449.53L608.211 446.838C614.983 446.202 621.834 445.277 628.646 445.489C630.585 445.549 631.901 446.357 633.54 447.282L633.064 448.57L632.267 448.643L630.425 448.869C628.489 449.393 627.688 451.466 626.14 452.45C625.96 452.565 624.532 452.589 624.29 452.609L615.449 453.279L559.175 457.606L532.737 460.294C528.535 460.708 523.043 464.388 519.237 463.75L517.315 464.692Z"/>
	<defs>
		<linearGradient id="gradient_16" gradientUnits="userSpaceOnUse" x1="537.25507" y1="359.65222" x2="523.37347" y2="412.49915">
			<stop offset="0" stop-color="#9C537E"/>
			<stop offset="1" stop-color="#D6AC95"/>
		</linearGradient>
	</defs>
	<path fill="url(#gradient_16)" d="M536.804 363.47L551.057 362.961C547.815 365.279 544.005 365.306 540.176 365.868C536.117 365.81 528.493 367.919 525.888 371.25C525.522 371.718 525.143 372.276 525.286 372.897C526.158 376.682 532.218 380.318 534.745 383.25C533.663 383.371 533.849 383.378 532.75 383L529 382.25L528.75 381.5L528.238 381.462C527.004 381.215 526.204 380.166 525.152 379.537L528.621 386.783C529.734 389.005 531.057 391.031 532.81 392.784C533.82 393.794 532.686 392.612 533.497 394.002L535.75 396.255C536.997 396.255 537.435 396.045 538.5 396.755C541.481 396.755 543.693 398.004 546.797 398.412L571.862 400.875L564.75 401L564.997 401.484C565.39 402.476 565.288 403.458 565.25 404.5L566.077 404.539C568.277 404.696 565.812 404.446 567.75 405L570.997 405.125C570.386 405.593 570.708 405.514 570.067 405.488L544.297 403.768C538.453 403.404 532.565 403.421 526.75 402.657C520.08 401.782 503.031 400.732 499.024 395L497.9 392.897C497.352 391.886 496.659 391.412 495.75 390.745C492.987 390.75 492.59 390.615 490.546 392.577C487.749 395.26 485.02 400.611 481.567 402.061C481.452 400.281 482.203 398.72 482.807 397.081L483.972 394.099L483.918 393.913L484.678 392.599C486.074 389.658 488.025 386.923 490.134 384.453C501.174 371.522 520.243 364.766 536.804 363.47Z"/>
	<path fill="#C992A7" d="M484.678 392.599C486.074 389.658 488.025 386.923 490.134 384.453C501.174 371.522 520.243 364.766 536.804 363.47C532.749 364.82 528.731 366.501 524.618 367.618L514.443 371.002C513.322 371.584 512.239 372.074 511.323 372.955C509.195 375 505.295 376.395 502.748 378.248L502.093 378.712C500.751 379.677 500.08 380.448 499.248 381.875C500.231 382.692 499.729 382.319 500.75 383C500.326 383.446 500.629 383.252 499.759 383.286C492.252 383.578 490.304 389.058 484.678 392.599Z"/>
	<defs>
		<linearGradient id="gradient_17" gradientUnits="userSpaceOnUse" x1="665.1745" y1="507.53061" x2="706.78918" y2="569.29895">
			<stop offset="0" stop-color="#D59A23"/>
			<stop offset="1" stop-color="#BF535A"/>
		</linearGradient>
	</defs>
	<path fill="url(#gradient_17)" d="M693.731 491.709C698.72 492.4 701.675 495.941 704.586 499.798L704.941 500.282C705.348 500.798 705.202 500.619 705.922 500.937L705.597 502.031C706.897 503.406 707.428 504.753 708.115 506.48C708.237 506.788 708.528 507.809 708.738 507.882C710.411 514.667 709.443 520.723 705.811 526.683L704.59 528.75L705.805 529.689L707.698 531.008C706.188 530.776 702.717 529.826 701.351 530.128C700.43 530.332 698.834 531.44 697.941 531.902C695.696 533.066 692.965 534.089 690.931 535.565L690.62 535.816L690.341 568.745C690.281 571.429 690.786 576.541 689.946 578.906C689.645 579.754 687.777 581.541 687.112 582.25C684.074 585.493 679.451 588.479 675.387 590.247C675.789 589.469 676.035 588.829 676.816 588.359L680.503 586.125C682.836 584.864 684.088 583.314 686.003 581.625L686.755 581L687.253 580.375L688.503 579.125C688.749 578.768 688.853 578.329 689.082 577.961C689.679 577.002 689.566 575.125 689.385 574.018C688.675 569.67 689.24 564.449 689.255 560L689.75 559.5C689.972 557.212 690.249 554.239 689.884 552C689.205 547.847 689.503 542.234 689.815 537.998L689.875 537.247C687.747 537.753 686.463 539.2 684.5 539.941L669.808 545.653L668.955 545.972L669.59 541.829C669.582 534.728 666.963 528.949 665.654 522.201C664.152 518.39 665.264 515.142 662.887 511.696C661.671 510.998 661.051 509.771 660.26 508.634C664.209 505.29 669.006 502.91 673.469 500.335C676.463 499.336 680.077 497.343 682.546 495.362L685.423 494.12C688.118 492.855 690.786 492.123 693.731 491.709Z"/>
	<path fill="#C5753B" d="M665.654 522.201C665.746 520.973 665.788 520.007 665.495 518.801L665.246 517.824C666.131 518.42 665.936 518.51 666.163 519.497L666.745 519L664.91 514.5L665.25 513.755C666.164 514.758 666.744 515.878 667.479 517.003C668.133 518.004 668.645 518.821 669.092 519.938L670.86 524.329L672.365 528.628C673.274 530.968 674.896 536.228 673.555 538.626C673.274 539.128 672.651 539.443 672.25 539.834C671.569 540.498 671.217 541.089 671.003 542.003L670.235 542.736L669.59 541.829C669.582 534.728 666.963 528.949 665.654 522.201Z"/>
	<path fill="#DDB793" d="M697.075 495.785L698.15 496.967L695.252 498.547C687.64 503.219 680.137 506.792 671.929 510.242C669.873 511.106 667.246 512.75 665.043 512.75L663.916 511.572C664.834 509.539 669.267 507.944 671.249 506.873C674.459 505.137 677.41 502.866 680.651 501.229C683.756 499.66 687.103 498.587 690.336 497.311C692.688 496.382 694.573 496.027 697.075 495.785Z"/>
	<defs>
		<linearGradient id="gradient_18" gradientUnits="userSpaceOnUse" x1="673.81116" y1="494.54794" x2="673.18884" y2="509.95206">
			<stop offset="0" stop-color="#D89229"/>
			<stop offset="1" stop-color="#E6B04A"/>
		</linearGradient>
	</defs>
	<path fill="url(#gradient_18)" d="M685.423 494.12C688.323 495.392 691.655 494.589 694.75 495.385L697.075 495.785C694.573 496.027 692.688 496.382 690.336 497.311C687.103 498.587 683.756 499.66 680.651 501.229C677.41 502.866 674.459 505.137 671.249 506.873C669.267 507.944 664.834 509.539 663.916 511.572L663.162 511.374L662.887 511.696C661.671 510.998 661.051 509.771 660.26 508.634C664.209 505.29 669.006 502.91 673.469 500.335C676.463 499.336 680.077 497.343 682.546 495.362L685.423 494.12Z"/>
	<path fill="#C5753B" d="M607.207 364.519C626.246 364.88 649.218 370.165 662.768 384.569C665.221 387.176 667.894 390.84 668.056 394.476L667.865 395.542C671.067 396.098 674.554 395.704 677.837 396.074C690.768 397.531 697.157 404.026 704.273 414.133L713.166 427.602C716.497 432.302 720.002 436.771 722.977 441.75C726.28 447.278 728.647 453.584 731.735 459.311C734.244 463.961 735.126 472.424 739.015 475.517C739.148 479.032 740.43 481.197 742.21 484.158C743.867 487.21 744.951 490.069 745.488 493.5L745.624 494.319C746.966 502.895 744.473 511.173 739.3 518.059C734.313 524.698 725.904 530.543 717.5 531.501C716.85 531.575 716.684 531.539 716.108 531.491C713.234 531.729 710.532 531.52 707.698 531.008L705.805 529.689L704.59 528.75L705.811 526.683C709.443 520.723 710.411 514.667 708.738 507.882C708.528 507.809 708.237 506.788 708.115 506.48C707.428 504.753 706.897 503.406 705.597 502.031L705.922 500.937C705.202 500.619 705.348 500.798 704.941 500.282L704.586 499.798C701.675 495.941 698.72 492.4 693.731 491.709C690.786 492.123 688.118 492.855 685.423 494.12L682.546 495.362C680.077 497.343 676.463 499.336 673.469 500.335L673.708 500.089C674.381 499.353 674.841 498.792 675.754 498.335L677.753 497.375L678.753 496.875C679.568 496.559 679.726 496.586 680.414 495.898C681.253 495.06 681.39 494.741 681.393 493.562L681.378 492.5L681.378 487C681.411 485.959 681.46 485.309 681.255 484.25C679.948 482.943 680.92 469.44 680.755 466.75C679.445 465.44 680.612 457.861 680.144 455.542L679.755 453.75L679.75 453L679.378 452.5L678.103 450.002L677.003 449.375L677 448.75L675.755 447.75L675.125 448.125L675 449.75C674.633 451.137 674.837 452.472 674.5 453.75C674.134 455.136 674.337 456.473 674 457.75C673.462 459.789 673.686 457.411 673.539 459.617L673.5 460.5L673.003 460.875L672.755 460.25L672.255 459.75L672.255 458.75L671.755 458L672.255 456.25C671.403 455.398 671.755 453.938 671.755 452.75L671.255 452.25L673.057 442.294C672.003 440.368 671.16 438.98 669.48 437.549C667.257 433.102 665.521 428.815 664.3 423.993C663.816 419.584 663.811 414.863 664.776 410.518C665.646 406.602 667.246 402.865 668.265 398.978L668.352 398.928L668.418 397.541C667.438 397.041 665.401 394.257 664.755 393.25C662.12 389.139 655.77 385.002 651.586 382.316L648.645 380.375C638.435 374.205 628.508 368.188 616.285 367.4L612.517 367.061C610.748 365.69 609.381 365.044 607.207 364.519Z"/>
	<path fill="#DDB793" d="M702.332 471.817L701.203 471.125L702.25 471L702.071 469.828L702.5 469.5L703.625 470.375C704.483 470.007 705.129 469.763 706.05 469.609L706.75 469.5L705.973 467.144L706.535 466.076C708.853 465.884 708.465 467.996 710.375 468.375L711.5 467C711.033 466.033 710.597 465.114 710 464.219L706.663 459.337L702.5 452.75L695.582 440.918L694.375 439.125C694.127 438.636 693.931 438.119 693.648 437.648L693.25 437C692.282 435.394 691.099 433.991 690.625 432.158C692.163 433.832 693.336 436.14 694.562 438.076L704.082 454.205C706.867 458.742 710.983 462.647 712.75 467.732L711.986 468.777C708.653 469.601 705.517 470.532 702.332 471.817Z"/>
	<path fill="white" d="M682.697 494.547C681.84 490.66 682.071 486.141 681.944 482.137L681.089 453.715L695.422 475.89L693.848 477.728L693.764 478.31C692.8 482.157 687.446 487.056 689.25 491.543C690.547 491.662 691.274 491.773 692.5 491.226L693.684 491.43L693.731 491.709C690.786 492.123 688.118 492.855 685.423 494.12L682.546 495.362L682.697 494.547Z"/>
	<path fill="#BA481F" d="M693.848 477.728L693.764 478.31C692.8 482.157 687.446 487.056 689.25 491.543C690.547 491.662 691.274 491.773 692.5 491.226L693.684 491.43L693.731 491.709C690.786 492.123 688.118 492.855 685.423 494.12L682.546 495.362L682.697 494.547C684.967 487.535 688.653 482.804 693.848 477.728Z"/>
	<defs>
		<linearGradient id="gradient_19" gradientUnits="userSpaceOnUse" x1="704.01135" y1="529.2981" x2="727.56177" y2="470.73666">
			<stop offset="0" stop-color="#9F3D17"/>
			<stop offset="1" stop-color="#C57324"/>
		</linearGradient>
	</defs>
	<path fill="url(#gradient_19)" d="M711.986 468.777C715.235 468.599 720.756 467.826 723.496 469.5C722.052 470.252 720.075 469.387 718.755 470.25C720.2 471.21 721.681 471.176 723.25 471.732L724.503 471.997C725.765 472.318 726.804 473.062 728.033 473.371C728.732 473.547 728.909 473.885 729.5 474.245C730.368 474.774 731.159 475.149 732 475.745C733.747 476.982 736.243 479.907 738.003 480.498L738.301 480.905C739.522 482.533 740.278 483.464 742.21 484.158C743.867 487.21 744.951 490.069 745.488 493.5L745.624 494.319C746.966 502.895 744.473 511.173 739.3 518.059C734.313 524.698 725.904 530.543 717.5 531.501C716.85 531.575 716.684 531.539 716.108 531.491C713.234 531.729 710.532 531.52 707.698 531.008L705.805 529.689L704.59 528.75L705.811 526.683C709.443 520.723 710.411 514.667 708.738 507.882C708.528 507.809 708.237 506.788 708.115 506.48C707.428 504.753 706.897 503.406 705.597 502.031L705.922 500.937C705.202 500.619 705.348 500.798 704.941 500.282L704.586 499.798C701.675 495.941 698.72 492.4 693.731 491.709L693.684 491.43L692.5 491.226C691.274 491.773 690.547 491.662 689.25 491.543C687.446 487.056 692.8 482.157 693.764 478.31L693.848 477.728L695.422 475.89L702.332 471.817C705.517 470.532 708.653 469.601 711.986 468.777Z"/>
	<path fill="#B03115" d="M708.738 507.882L709.854 507.606C710.736 508.957 711.16 509.511 711.3 511.102C711.797 516.722 712.783 523.71 709.331 528.75C708.562 529.873 707.022 529.601 705.805 529.689L704.59 528.75L705.811 526.683C709.443 520.723 710.411 514.667 708.738 507.882Z"/>
	<path fill="#DDB793" d="M703.197 483.045C704.246 483.158 705.301 483.344 706.228 483.885C708.18 485.024 709.717 487.803 710.013 490C710.247 491.737 709.311 492.427 708.25 493.564C706.618 494.037 706.419 494.047 704.79 493.571C703.955 493.038 703.315 492.683 702.352 492.41C699.83 491.694 698.4 491.265 696.758 489.25C696.679 488.21 696.389 487.261 696.926 486.328C698.352 483.848 700.637 483.683 703.197 483.045Z"/>
	<path fill="#C78882" d="M633.54 447.282C634.707 448.114 635.809 448.808 637.102 449.428C639.889 450.661 640.688 451.873 641.776 454.674L660.26 508.634C661.051 509.771 661.671 510.998 662.887 511.696C665.264 515.142 664.152 518.39 665.654 522.201C666.963 528.949 669.582 534.728 669.59 541.829L668.955 545.972C667.093 553.219 665.276 559.79 658.433 563.899C657.655 564.366 656.99 564.626 656.12 564.85C653.679 566.267 650.282 566.838 647.536 566.109L647 565.959C645.368 565.535 644.014 565.039 642.5 564.282L641.931 563.503C641.036 563.281 640.414 562.925 639.609 562.488L639.223 562.683L637.933 562.154C632.381 561.74 626.051 562.765 620.5 563.371L589.268 565.909L567.731 567.855C563.35 568.248 558.371 569.075 554 568.477C552.504 568.272 551.304 567.694 550.177 566.695C548.688 565.376 547.727 563.587 547.004 561.762C545.39 557.688 544.328 553.346 542.988 549.175L533.164 517.76L521.019 479.41C519.593 474.66 517.485 469.663 517.315 464.692L519.237 463.75C523.043 464.388 528.535 460.708 532.737 460.294L559.175 457.606L615.449 453.279L624.29 452.609C624.532 452.589 625.96 452.565 626.14 452.45C627.688 451.466 628.489 449.393 630.425 448.869L632.267 448.643L633.064 448.57L633.54 447.282Z"/>
	<path fill="#BE6A2E" d="M608.008 517.102C605.636 516.258 600.45 517.159 599.003 516.003C599.964 515.778 600.769 515.731 601.755 515.75L602.5 515.255C604.159 515.253 606.639 515.659 608 514.755L609 514.75L609.5 514.255C610.604 514.252 611.186 514.561 612 513.755C613.993 513.754 617.92 514.305 619.5 513.255C620.492 513.328 621.077 513.551 622 513.755L623.5 513.75L624 513.255C625.25 513.212 626.418 513.007 627.5 513.75L628 513.255C630.86 513.255 635.546 512.643 638 513.755L638.548 513.843C639.473 514.053 639.925 514.621 640.591 515.25C641.437 518.242 641.431 521.539 641.781 524.632L644.129 545.471C644.563 549.083 645.734 552.587 646.396 556.164C646.931 559.058 647.69 560.265 649.726 562.272L650.629 563.25C649.666 563.98 650.195 563.769 649.061 563.93C647.076 564.045 645.127 563.36 643.129 563.264L642 563.187C639.854 562.464 643.164 563.211 640.442 562.648L639.609 562.488L639.223 562.683L637.933 562.154C637.552 561.042 635.883 559.811 635.063 558.885C633.833 557.492 632.855 555.817 631.871 554.245C633.495 554.196 634.976 554.058 636.453 553.312C639.361 551.843 639.037 548.8 640.245 546.5C641.18 544.719 640.619 541.787 641.094 539.643L641.192 539.233L639.607 525.5C639.079 522.669 639.087 519.87 639.006 516.993L632.791 516.683C628.33 517.288 623.56 516.697 619.25 517.412C611.912 518.629 604.191 518.268 596.75 519.255L586.027 519.914C587.994 519.048 589.198 518.794 591.363 518.76L592 518.755C593.582 517.7 597.503 518.255 599.5 518.255C601.819 516.709 605.529 518.85 608.008 517.102Z"/>
	<path fill="#BA481F" d="M641.192 539.233L641.315 539.827C642.081 543.941 641.727 548.248 641.687 552.417C641.678 553.368 641.485 556.177 641.876 556.883C642.549 558.099 644.942 559.878 646.086 560.673C647.261 561.49 648.778 562.047 649.233 563.417L649.061 563.93C647.076 564.045 645.127 563.36 643.129 563.264L642 563.187C639.854 562.464 643.164 563.211 640.442 562.648L639.609 562.488L639.223 562.683L637.933 562.154C637.552 561.042 635.883 559.811 635.063 558.885C633.833 557.492 632.855 555.817 631.871 554.245C633.495 554.196 634.976 554.058 636.453 553.312C639.361 551.843 639.037 548.8 640.245 546.5C641.18 544.719 640.619 541.787 641.094 539.643L641.192 539.233Z"/>
	<defs>
		<linearGradient id="gradient_20" gradientUnits="userSpaceOnUse" x1="619.73425" y1="509.24701" x2="601.35754" y2="551.35663">
			<stop offset="0" stop-color="#8F2416"/>
			<stop offset="1" stop-color="#BB572C"/>
		</linearGradient>
	</defs>
	<path fill="url(#gradient_20)" d="M632.791 516.683L639.006 516.993C639.087 519.87 639.079 522.669 639.607 525.5L641.192 539.233L641.094 539.643C640.619 541.787 641.18 544.719 640.245 546.5C639.037 548.8 639.361 551.843 636.453 553.312C634.976 554.058 633.495 554.196 631.871 554.245C631.716 554.08 631.614 553.841 631.406 553.751C630.773 553.477 629.029 553.516 628.301 553.465L619.984 552.817C614.555 552.195 609.216 551.367 603.883 550.147C595.14 548.146 580.039 545.069 575.054 537.084C574.562 536.266 574.381 535.679 574.253 534.733C573.862 531.848 574.462 528.781 576.114 526.411C579.097 522.819 581.307 520.883 586.027 519.914L596.75 519.255C604.191 518.268 611.912 518.629 619.25 517.412C623.56 516.697 628.33 517.288 632.791 516.683Z"/>
</svg>
