<?xml version="1.0" encoding="utf-8" ?>
<svg xmlns="http://www.w3.org/2000/svg" xmlns:xlink="http://www.w3.org/1999/xlink" width="1024" height="1024">
	<defs>
		<linearGradient id="gradient_0" gradientUnits="userSpaceOnUse" x1="261.93704" y1="421.77191" x2="210.01834" y2="354.02246">
			<stop offset="0" stop-color="#CE8554"/>
			<stop offset="1" stop-color="#F0CB88"/>
		</linearGradient>
	</defs>
	<path fill="url(#gradient_0)" d="M203.887 459.95C200.442 457.473 196.428 456.9 193.77 453.214C193.237 450.445 194.08 447.44 194.805 444.757C196.429 438.75 198.685 432.881 200.851 427.051C210.624 400.74 222 375.375 234.543 350.269C238.53 342.29 242.244 333.446 247.174 326.029C249.185 323.003 250.12 322.335 253.633 321.579C256.892 326.206 261.727 329.238 266.246 332.469L280.773 342.874C289.952 349.461 299.428 357.337 309.431 362.554L297.803 387.881C295.917 391.996 294.241 396.78 291.83 400.579L291.447 399.772C291.024 398.858 290.859 398.034 290.723 397.034C289.418 396.764 287.541 397.811 286.371 398.53L285.247 399.444C277.82 405.233 269.174 409.915 262.164 416.162L242.366 431.207L221.445 446.898C218.356 449.141 214.843 451.618 212.069 454.289C209.968 456.312 207.046 459.101 204.521 460.492L203.887 459.95Z"/>
	<defs>
		<linearGradient id="gradient_1" gradientUnits="userSpaceOnUse" x1="530.77631" y1="246.88719" x2="477.88705" y2="169.9212">
			<stop offset="0" stop-color="#B14727"/>
			<stop offset="1" stop-color="#DC985C"/>
		</linearGradient>
	</defs>
	<path fill="url(#gradient_1)" d="M456.964 198.623L458.822 194.078C465.366 179.663 475.585 167.817 490.728 162.242C505.671 156.74 521.772 156.761 536.315 163.64C550.921 170.549 560.679 182.226 566.009 197.291C566.707 199.19 567.449 201.06 567.888 203.038L566.953 204.75L567.137 205.347C567.451 206.94 566.871 208.731 565.911 210C566.531 210.834 566.875 211.146 567.842 211.535C567.932 213.871 567.985 216.214 568.524 218.501C568.695 220.157 567.906 221.932 567.506 223.552L567.443 223.615C565.887 223.269 565.454 222.915 564 223.766L560.124 226.399C559.416 226.893 559.702 226.716 558.696 226.956L558.378 227.258C557.267 228.301 556.299 229.143 554.839 229.665C553.768 230.049 553.354 230.816 552.499 231.479C550.63 232.929 548.446 233.886 546.612 235.421C544.739 236.989 542.425 238.352 540.34 239.629C536.452 242.011 533.009 244.956 529.163 247.398C525.845 249.506 522.123 251.819 519.344 254.627C518.078 255.906 516.06 256.599 514.523 257.551C511.275 259.562 508.155 261.962 505.157 264.268L504.401 264.662L498.392 268.651C497.063 269.593 495.771 270.389 494.365 271.186L493.164 272.169L490.153 274.696C489.53 275.247 488.957 275.333 488.262 275.753C487.756 276.059 487.277 276.751 486.895 277.204C485.614 278.722 484.182 279.41 482.195 279.618L481.044 279.636L474.855 266.537C474.523 262.402 471.825 258.137 470.022 254.452L462.505 238C459.277 231.051 454.058 224.269 454.081 216.25C454.098 210.531 455.991 204.277 456.964 198.623Z"/>
	<defs>
		<linearGradient id="gradient_2" gradientUnits="userSpaceOnUse" x1="808.70923" y1="645.38446" x2="744.31586" y2="601.58533">
			<stop offset="0" stop-color="#C36F48"/>
			<stop offset="1" stop-color="#E4BF7D"/>
		</linearGradient>
	</defs>
	<path fill="url(#gradient_2)" d="M758.36 547.473C762.926 550.019 768.274 552.354 772.514 555.314L773.316 555.681C777.436 557.598 781.375 560.224 785.392 562.377C790.808 565.281 797.377 568.487 803.459 569.62C811.306 571.083 818.415 570.32 826.181 569.085C828.653 573.045 829.356 575.719 828.25 580.346C825.914 590.116 821.459 599.453 817.807 608.788C804.486 642.839 790.095 676.962 768.449 706.724C767.334 702.873 764.585 698.529 762.25 695.283C758.673 690.31 753.891 687.027 749.037 683.442C739.168 676.153 728.517 669.973 718.25 663.255L714.482 660.963C726.545 640.653 737.655 620.972 745.382 598.519L758.36 547.473Z"/>
	<path fill="#E8C581" d="M758.36 547.473C762.926 550.019 768.274 552.354 772.514 555.314L772.386 556.298C773.477 556.781 774.047 556.776 774.667 557.832C773.445 560.056 771.695 561.693 770.52 563.903L768.047 567.18L745.933 600.922C745.447 600.494 745.474 599.183 745.382 598.519L758.36 547.473Z"/>
	<defs>
		<linearGradient id="gradient_3" gradientUnits="userSpaceOnUse" x1="806.1441" y1="345.9278" x2="740.07117" y2="455.18103">
			<stop offset="0" stop-color="#BD4D21"/>
			<stop offset="1" stop-color="#C86B37"/>
		</linearGradient>
	</defs>
	<path fill="url(#gradient_3)" d="M711.668 364.654C715.633 363.113 719.578 360.366 723.144 358.077L743.902 344.25C749.464 340.632 755.538 337.492 760.782 333.44C763.502 331.339 765.639 328.927 767.795 326.267C770.579 326.654 773.265 327.064 776.084 326.866L776.632 326.819C778.338 328.573 779.719 330.232 780.865 332.418C783.399 337.249 785.348 342.515 787.437 347.555L798.704 374.957L817.876 422.205C821.047 430.543 824.382 438.932 826.685 447.558C825.506 450.947 824.137 453.806 822.183 456.838C817.082 455.188 809.023 455.605 803.829 456.798L796.335 458.64C784.865 463.109 773.467 469.055 762.835 475.25C760.992 476.323 758.508 477.309 756.875 478.622L752.591 464.053L741.47 426.702C733.984 405.125 723.574 384.109 711.668 364.654Z"/>
	<path fill="#B13116" d="M752.591 464.053C756.567 463.919 760.869 464.438 764.775 463.644C768.329 462.921 771.725 460.444 775.11 459.054C778.249 457.765 781.606 457.07 784.861 456.142C790.101 454.649 796.086 452.561 801.556 452.557C802.279 452.556 802.434 453.006 802.919 453.5L802.763 453.899C802.183 454.975 800.922 455.437 799.832 455.831C797.884 456.535 797.332 456.803 796.335 458.64C784.865 463.109 773.467 469.055 762.835 475.25C760.992 476.323 758.508 477.309 756.875 478.622L752.591 464.053Z"/>
	<path fill="#C97A40" d="M205.516 569.171C209.084 569.035 212.762 569.365 216.292 568.797L217 568.673C228.331 566.754 239.074 560.813 248.971 555.252L266.197 545.721L274.026 575.597C279.087 592.963 285.852 609.821 294.229 625.853C297.407 631.933 300.828 637.95 304.612 643.674C307.993 648.79 312.015 653.784 314.544 659.388C309.174 662.119 304.151 665.653 299.024 668.817C288.182 675.507 275.37 682.512 266.291 691.487C263.262 694.481 260.932 698.151 258.772 701.796C258.137 701.91 257.977 701.984 257.25 701.857C254.107 701.311 251.17 698.667 249.293 696.242C246.815 693.041 245.018 689.116 243.182 685.523L235.315 670.133C222.781 645.594 210.302 621.403 200.298 595.67C198.645 591.419 193.669 580.467 195.128 576.085C196.259 572.692 202.39 570.317 205.516 569.171Z"/>
	<defs>
		<linearGradient id="gradient_4" gradientUnits="userSpaceOnUse" x1="607.88782" y1="288.20514" x2="636.59546" y2="216.95598">
			<stop offset="0" stop-color="#C37552"/>
			<stop offset="1" stop-color="#E5B26E"/>
		</linearGradient>
	</defs>
	<path fill="url(#gradient_4)" d="M566.009 197.291C571.04 195.789 577.427 195.883 582.584 196.844C593.856 198.944 604.599 203.511 615.232 207.618L661.012 227.249L682.75 237.71C690.738 241.998 695.936 246.302 699.36 254.931C698.802 257.031 696.005 258.614 694.423 260.101L689.367 266.494L671.947 293.203C668.376 298.718 664.958 304.605 660.536 309.487C656.166 308.29 651.716 305.616 647.629 303.582L628.376 294.417C612.904 287.412 597.087 281.479 580.971 276.151C572.189 273.248 563.445 270.289 554.434 268.169L552.446 267.562L549.462 266.629L554.099 255.583L558.912 244L564.495 231C564.924 230.175 565.345 229.43 565.673 228.557L565.965 227.75L567.443 223.615L567.506 223.552C567.906 221.932 568.695 220.157 568.524 218.501C567.985 216.214 567.932 213.871 567.842 211.535C566.875 211.146 566.531 210.834 565.911 210C566.871 208.731 567.451 206.94 567.137 205.347L566.953 204.75L567.888 203.038C567.449 201.06 566.707 199.19 566.009 197.291Z"/>
	<path fill="#C88884" d="M689.367 266.494L680.886 262.408C683.876 259.499 687.533 257.92 690.45 254.85L691.017 254.247L694.423 260.101L689.367 266.494Z"/>
	<path fill="#C97A40" d="M567.888 203.038C568.657 204.978 569.114 206.757 569.533 208.795C569.735 209.776 569.62 209.4 570.173 210.329L570.849 210.595C572.509 211.26 575.219 212.186 575.987 214C577.298 217.094 576.088 219.475 574.736 222.268C571.039 229.906 569.199 238.152 565.827 245.863C562.488 253.5 557.847 260.577 554.434 268.169L552.446 267.562C554.617 264.671 555.784 260.448 557.156 257.105L564.513 239.5C567.742 232.195 571.747 225.559 574.617 218.018L569.302 213.708L568.524 218.501C567.985 216.214 567.932 213.871 567.842 211.535C566.875 211.146 566.531 210.834 565.911 210C566.871 208.731 567.451 206.94 567.137 205.347L566.953 204.75L567.888 203.038Z"/>
	<path fill="#BC592E" d="M568.524 218.501L569.302 213.708L574.617 218.018C571.747 225.559 567.742 232.195 564.513 239.5L557.156 257.105C555.784 260.448 554.617 264.671 552.446 267.562L549.462 266.629L554.099 255.583L558.912 244L564.495 231C564.924 230.175 565.345 229.43 565.673 228.557L565.965 227.75L567.443 223.615L567.506 223.552C567.906 221.932 568.695 220.157 568.524 218.501Z"/>
	<defs>
		<linearGradient id="gradient_5" gradientUnits="userSpaceOnUse" x1="411.15744" y1="291.05807" x2="384.38474" y2="215.89908">
			<stop offset="0" stop-color="#BE6D4D"/>
			<stop offset="1" stop-color="#EBBA77"/>
		</linearGradient>
	</defs>
	<path fill="url(#gradient_5)" d="M320.309 253.481L320.698 251.705C321.459 249.008 323.63 247.618 325.952 246.32C353.765 230.758 382.49 217.411 412.119 205.731L431.063 198.981C434.175 198.02 437.346 196.884 440.587 196.483C446.252 195.781 451.56 197.102 456.964 198.623C455.991 204.277 454.098 210.531 454.081 216.25C454.058 224.269 459.277 231.051 462.505 238L470.022 254.452C471.825 258.137 474.523 262.402 474.855 266.537L361.098 310.381L330.338 264.808C328.845 262.747 327.227 260.829 325.369 259.086C323.208 257.059 321.226 256.396 320.309 253.481Z"/>
	<defs>
		<linearGradient id="gradient_6" gradientUnits="userSpaceOnUse" x1="792.99402" y1="570.1922" x2="791.18433" y2="512.66138">
			<stop offset="0" stop-color="#9D1D01"/>
			<stop offset="1" stop-color="#BB5F34"/>
		</linearGradient>
	</defs>
	<path fill="url(#gradient_6)" d="M796.335 458.64L803.829 456.798C809.023 455.605 817.082 455.188 822.183 456.838C826.317 458.161 830.668 459.352 834.575 461.254C846.21 466.919 855.481 476.514 861.361 488C864.444 494.023 865.934 500.395 866.842 507.066L867.219 511.588C868.332 525.797 862.802 540.751 853.549 551.482C846.338 559.843 836.602 565.628 826.181 569.085C818.415 570.32 811.306 571.083 803.459 569.62C797.377 568.487 790.808 565.281 785.392 562.377C781.375 560.224 777.436 557.598 773.316 555.681L772.514 555.314C768.274 552.354 762.926 550.019 758.36 547.473C755.984 545.381 752.218 543.866 749.398 542.298L725.045 528.764C719.891 525.705 716.778 521.643 715.331 515.821L715.121 514.859L715.112 514.5L714.996 510.822C715.371 499.187 727.525 493.664 736.416 489.32L749.503 482.793C751.999 481.54 754.795 480.522 756.875 478.622C758.508 477.309 760.992 476.323 762.835 475.25C773.467 469.055 784.865 463.109 796.335 458.64Z"/>
	<defs>
		<linearGradient id="gradient_7" gradientUnits="userSpaceOnUse" x1="790.80042" y1="510.5213" x2="789.03168" y2="457.14514">
			<stop offset="0" stop-color="#BC6135"/>
			<stop offset="1" stop-color="#D99D63"/>
		</linearGradient>
	</defs>
	<path fill="url(#gradient_7)" d="M796.335 458.64L803.829 456.798C809.023 455.605 817.082 455.188 822.183 456.838C826.317 458.161 830.668 459.352 834.575 461.254C846.21 466.919 855.481 476.514 861.361 488C864.444 494.023 865.934 500.395 866.842 507.066L867.219 511.588L866.155 512.377L865.765 512.146C864.408 511.376 863.728 511.258 862.198 511.276C861.435 511.286 861.834 511.309 861.004 511.013C859.446 510.457 857.446 510.723 855.79 510.721C851.514 510.714 847.19 510.514 842.998 511.255C839.613 511.853 835.296 511.2 831.796 511.281C830.766 511.304 829.881 511.763 828.838 511.782L785.391 512.781C783.927 512.809 782.597 513.284 781.054 513.283C777.889 513.28 773.817 512.774 770.751 513.308C769.888 513.458 769.215 513.766 768.319 513.782L754.429 513.781C753.367 513.8 752.467 514.26 751.414 514.282C746.698 514.383 742.15 514.077 737.498 514.755C734.139 515.245 730.934 514.539 727.498 515.263L723.931 515.634C721.343 516.031 717.981 515.935 715.331 515.821L715.121 514.859L715.112 514.5L714.996 510.822C715.371 499.187 727.525 493.664 736.416 489.32L749.503 482.793C751.999 481.54 754.795 480.522 756.875 478.622C758.508 477.309 760.992 476.323 762.835 475.25C773.467 469.055 784.865 463.109 796.335 458.64Z"/>
	<path fill="#BC592E" d="M866.842 507.066L867.219 511.588L866.155 512.377L865.765 512.146C864.408 511.376 863.728 511.258 862.198 511.276C861.435 511.286 861.834 511.309 861.004 511.013C859.446 510.457 857.446 510.723 855.79 510.721C851.514 510.714 847.19 510.514 842.998 511.255C839.613 511.853 835.296 511.2 831.796 511.281C830.766 511.304 829.881 511.763 828.838 511.782L785.391 512.781C783.927 512.809 782.597 513.284 781.054 513.283C777.889 513.28 773.817 512.774 770.751 513.308C769.888 513.458 769.215 513.766 768.319 513.782L754.429 513.781C753.367 513.8 752.467 514.26 751.414 514.282C746.698 514.383 742.15 514.077 737.498 514.755C734.139 515.245 730.934 514.539 727.498 515.263L723.931 515.634C721.343 516.031 717.981 515.935 715.331 515.821L715.121 514.859C716.004 513.984 716.677 512.785 718.032 512.924C719.383 513.063 719.995 513.331 721.408 513.042C725.692 512.165 729.135 512.05 733.454 511.905C734.428 511.872 734.909 511.31 735.956 511.309C740.406 511.303 745.988 512.122 750.269 511.193C753.732 510.44 759.35 510.412 762.916 510.866C763.874 510.988 764.262 511.078 765.228 510.793C768.367 509.866 774.567 509.905 777.899 510.373C779.806 510.64 780.945 509.718 782.761 509.814L795.5 509.871C799.001 509.057 804.228 508.852 807.875 509.37C809.773 509.64 811.008 508.937 812.843 508.849C816.077 508.694 819.599 508.791 822.827 508.978C824.773 509.091 826.455 508.342 828.397 508.331L837.752 508.571C839.336 508.571 840.906 507.887 842.52 507.844L855.757 507.887C859.046 507.874 862.474 507.411 865.646 508.39L866.028 508.523C866.534 508.109 866.611 507.662 866.842 507.066Z"/>
	<defs>
		<linearGradient id="gradient_8" gradientUnits="userSpaceOnUse" x1="717.21936" y1="364.06308" x2="661.39075" y2="282.58435">
			<stop offset="0" stop-color="#B28789"/>
			<stop offset="1" stop-color="#CAB0B1"/>
		</linearGradient>
	</defs>
	<path fill="url(#gradient_8)" d="M699.36 254.931L700.263 256.153C715.83 251.874 730.8 251.08 745.28 259.422C757.798 266.634 766.245 279.537 769.896 293.299C772.373 302.638 772.219 312.383 768.959 321.508C771.633 323.119 774.272 324.76 776.632 326.819L776.084 326.866C773.265 327.064 770.579 326.654 767.795 326.267C765.639 328.927 763.502 331.339 760.782 333.44C755.538 337.492 749.464 340.632 743.902 344.25L723.144 358.077C719.578 360.366 715.633 363.113 711.668 364.654C707.6 366.323 703.47 369.401 699.734 371.796L679.591 384.897C672.951 389.362 666.138 394.443 658.75 397.6C652.882 400.108 646.022 400.82 640.016 398.314C633.81 395.726 628.747 390.553 626.401 384.22C624.73 379.708 624.497 374.601 626.025 370.016C628.26 363.31 633.473 356.961 637.304 351.029L653.25 325.051C656.135 320.19 659.41 315.456 661.75 310.305L660.536 309.487C664.958 304.605 668.376 298.718 671.947 293.203L689.367 266.494L694.423 260.101C696.005 258.614 698.802 257.031 699.36 254.931Z"/>
	<defs>
		<linearGradient id="gradient_9" gradientUnits="userSpaceOnUse" x1="353.47873" y1="411.84204" x2="289.15094" y2="254.19415">
			<stop offset="0" stop-color="#AC7B83"/>
			<stop offset="1" stop-color="#CCB3B5"/>
		</linearGradient>
	</defs>
	<path fill="url(#gradient_9)" d="M253.633 321.579C253.712 319.645 252.167 316.554 251.699 314.537C249.277 304.088 250.648 293.737 255.058 284C261.11 270.64 272.237 260.038 286 254.896C296.392 251.013 308.886 249.918 319.188 254.67L319.75 254.935L320.309 253.481C321.226 256.396 323.208 257.059 325.369 259.086C327.227 260.829 328.845 262.747 330.338 264.808L361.098 310.381L361.51 311.288C363.48 315.496 366.763 319.666 369.399 323.533L385.407 347.1C389.929 353.671 395.751 360.763 398.731 368.185C400.581 372.791 401.351 378.616 399.748 383.425C397.469 390.265 391.84 397.032 385.259 400.163C379.611 402.85 373.877 403.144 368.015 400.975C360.352 398.14 353.737 392.715 347.13 388.018L322.779 371.387C318.439 368.45 314.074 364.953 309.431 362.554C299.428 357.337 289.952 349.461 280.773 342.874L266.246 332.469C261.727 329.238 256.892 326.206 253.633 321.579Z"/>
	<defs>
		<linearGradient id="gradient_10" gradientUnits="userSpaceOnUse" x1="280.71225" y1="540.2608" x2="213.86685" y2="452.01132">
			<stop offset="0" stop-color="#A42F13"/>
			<stop offset="1" stop-color="#D08957"/>
		</linearGradient>
	</defs>
	<path fill="url(#gradient_10)" d="M203.887 459.95L204.521 460.492C207.046 459.101 209.968 456.312 212.069 454.289C214.843 451.618 218.356 449.141 221.445 446.898L242.366 431.207L262.164 416.162C269.174 409.915 277.82 405.233 285.247 399.444L286.371 398.53C287.541 397.811 289.418 396.764 290.723 397.034C290.859 398.034 291.024 398.858 291.447 399.772L291.83 400.579C288.611 408.88 283.838 416.682 280.954 425.086C274.742 443.189 271.276 462.364 265.205 480.553L287 491.117C292.708 493.815 299.355 496.346 304.069 500.638C306.369 502.733 308.113 505.766 308.948 508.75C310.058 512.72 309.422 516.94 307.304 520.454C304.916 524.416 300.693 526.9 296.79 529.152L278.123 538.995C274.142 540.996 269.626 542.83 266.197 545.721L248.971 555.252C239.074 560.813 228.331 566.754 217 568.673L216.292 568.797C212.762 569.365 209.084 569.035 205.516 569.171C201.252 568.822 196.537 567.138 192.507 565.767C179.278 561.266 166.407 550.257 160.308 537.663C154.693 526.071 152.961 509.847 157.156 497.592C158.218 493.334 160.439 488.971 162.742 485.255C171.446 471.215 184.905 464.258 200.553 460.596C201.24 460.185 203.037 460.102 203.887 459.95Z"/>
	<path fill="#C97A40" d="M157.156 497.592C158.218 493.334 160.439 488.971 162.742 485.255C171.446 471.215 184.905 464.258 200.553 460.596L201.793 461.528C201.461 462.634 200.92 463.236 199.923 463.829L198.503 464.503L197.355 465.324L191.501 469.335C189.986 470.526 188.743 472.008 187.16 473.115L179.166 479.59L170.268 486.913C169.43 487.542 169.906 487.112 169.35 487.882C168.714 488.763 167.814 488.845 167.003 489.503C163.902 492.015 161.225 496.351 157.749 498.177L157.156 497.592Z"/>
	<defs>
		<linearGradient id="gradient_11" gradientUnits="userSpaceOnUse" x1="550.71545" y1="294.04395" x2="521.89093" y2="251.5809">
			<stop offset="0" stop-color="#9C1C0A"/>
			<stop offset="1" stop-color="#B14727"/>
		</linearGradient>
	</defs>
	<path fill="url(#gradient_11)" d="M481.044 279.636L482.195 279.618C484.182 279.41 485.614 278.722 486.895 277.204C487.277 276.751 487.756 276.059 488.262 275.753C488.957 275.333 489.53 275.247 490.153 274.696L493.164 272.169L494.365 271.186C495.771 270.389 497.063 269.593 498.392 268.651L504.401 264.662L505.157 264.268C508.155 261.962 511.275 259.562 514.523 257.551C516.06 256.599 518.078 255.906 519.344 254.627C522.123 251.819 525.845 249.506 529.163 247.398C533.009 244.956 536.452 242.011 540.34 239.629C542.425 238.352 544.739 236.989 546.612 235.421C548.446 233.886 550.63 232.929 552.499 231.479C553.354 230.816 553.768 230.049 554.839 229.665C556.299 229.143 557.267 228.301 558.378 227.258L558.696 226.956C559.702 226.716 559.416 226.893 560.124 226.399L564 223.766C565.454 222.915 565.887 223.269 567.443 223.615L565.965 227.75L565.673 228.557C565.345 229.43 564.924 230.175 564.495 231L558.912 244L554.099 255.583L549.462 266.629C546.991 273.381 543.496 279.972 540.464 286.5C537.049 293.852 533.878 302.449 529.125 308.981C527.242 311.569 524.864 313.47 521.942 314.787C516.763 317.123 509.947 317.723 504.623 315.492C495.739 311.769 491.879 302.232 488.053 294.079L481.044 279.636Z"/>
	<defs>
		<linearGradient id="gradient_12" gradientUnits="userSpaceOnUse" x1="497.56003" y1="493.5274" x2="464.93979" y2="452.15326">
			<stop offset="0" stop-color="#DB9848"/>
			<stop offset="1" stop-color="#EBBA62"/>
		</linearGradient>
	</defs>
	<path fill="url(#gradient_12)" d="M440.351 537.82L437.748 529.11C433.131 509.791 435.721 489.222 446.344 472.216C457.59 454.213 474.233 442.155 495.014 437.463C516.687 432.569 535.611 436.508 554.171 448.309C552.877 450.154 551.863 452.016 549.531 452.548L548.778 453.346L548.37 453.351C546.993 453.561 544.72 455.511 543.778 456.495C542.225 458.116 540.055 458.627 538.422 460.443C537.395 461.583 536.325 461.828 535.183 462.71C533.675 463.874 532.948 464.912 531.17 465.831C530.04 466.414 529.181 467.422 528.346 468.362L527.394 468.408C526.078 470.591 525.265 470.057 523.797 471.533C523.424 471.909 523.334 472.507 522.965 472.885C522.432 473.431 521.21 473.6 520.636 474.128C520.16 474.565 519.482 476.243 519.152 476.845L518.587 476.928C517.359 477.187 516.642 477.672 515.848 478.605C514.935 479.679 513.517 480.156 512.257 480.731L511.979 481.251C511.451 482.036 510.912 482.236 510.109 482.654C509.49 482.976 509.037 483.387 508.503 483.828C507.626 484.553 507.386 484.803 506.25 485.007C505.909 485.54 505.127 487.151 504.679 487.458C503.754 488.092 503.551 487.41 502.739 488.533C501.342 490.464 498.263 492.166 496.266 493.576C495.431 494.165 495.755 493.896 495.141 494.543C494.417 495.305 493.556 495.505 492.846 496.362L491.894 496.408L491.509 497.094C490.538 498.667 488.761 499.497 487.281 500.543C486.328 501.217 486.801 500.835 486.175 501.648C485.117 503.023 483.389 503.693 482.005 504.698C479.416 506.575 476.667 509.003 474.259 511.104L472.741 512.261L470.597 514.15C469.49 515.098 467.62 515.56 466.727 516.685C466.388 517.113 465.197 519.128 464.798 519.339C463.953 519.788 464.1 518.754 462.974 519.833C462.326 520.454 461.742 520.854 461.005 521.346L459.23 522.495C458.505 522.949 458.785 522.725 458.351 523.366C457.891 524.045 457.405 524.285 456.734 524.714C454.898 525.884 453.011 527.491 451.455 528.969C450.026 530.326 448.491 531.44 447.136 532.928C446.489 533.639 445.971 533.855 445.164 534.316C443.4 535.326 442.256 536.917 440.351 537.82Z"/>
	<defs>
		<linearGradient id="gradient_13" gradientUnits="userSpaceOnUse" x1="564.95636" y1="775.89691" x2="539.52527" y2="698.04822">
			<stop offset="0" stop-color="#C36D40"/>
			<stop offset="1" stop-color="#E0AA6C"/>
		</linearGradient>
	</defs>
	<path fill="url(#gradient_13)" d="M472.963 756.599C475.524 753.673 477.215 749.629 478.965 746.182L488.082 728.712C491.715 721.865 494.796 713.815 502.009 709.99C506.908 707.393 513.69 706.804 518.989 708.437C522.999 709.673 526.626 711.976 529.386 715.137C533.243 719.557 535.496 726.008 538.149 731.223L551.039 755.809L561.49 753.265C586.321 746.371 610.736 739.07 634.006 727.742C642.824 723.449 651.256 718.336 659.695 713.356L667.342 725.907L675.179 739.407C674.049 740.035 674.852 739.716 673.948 739.873C673.193 740.004 672.82 740.385 672.212 740.799C669.126 742.898 665.024 743.379 661.504 744.315L646.322 748.588C643.287 749.396 640.369 750.664 637.328 751.373C635.535 751.791 633.493 753.137 631.663 752.526L629.007 753.534C628.012 753.888 628.744 753.605 627.816 754.076C627.058 754.461 627.356 754.33 626.447 754.432C625.559 754.532 625.309 754.685 624.615 755.214L623.673 755.044C623.007 755.466 622.931 755.7 622.151 755.621C621.263 755.531 620.795 755.88 620 756.199L619.313 756.445C618.841 756.62 618.439 756.953 617.973 757.145L616.886 757.216C615.741 757.272 614.973 757.816 614.001 758.368C612.805 758.276 612.572 758.456 611.471 758.961C610.621 759.352 611.002 759.173 610.025 759.369C608.915 759.593 608.608 760.037 607.662 760.545L605.885 761.284L604.941 761.917C604.145 761.929 603.146 761.747 602.499 762.211C601.413 762.99 600.957 762.881 599.874 763.316L598.523 764.237C597.035 764.065 596.589 764.603 595.173 764.56C594.113 764.527 593.356 765.194 592.64 765.861C588.42 766.582 585.619 768.812 581.738 769.839C580.068 770.28 578.423 771.197 576.752 771.761C574.848 772.403 573.139 773.263 571.162 773.74L554.45 778.507L549.926 780.12C548.815 780.518 547.595 780.648 546.509 781.011L545.864 781.368C544.409 782.097 542.865 782.038 541.374 782.729L536.628 784.337C535.724 784.589 536.253 784.429 535.273 784.873C532.38 786.185 528.491 787.05 525.409 787.952L524.02 788.504C519.756 790.137 515.241 791.055 511 792.77L509.279 793.259C507.375 793.819 505.67 794.42 503.982 795.478L503.31 795.369C502.192 795.244 501.891 795.532 500.957 796C499.655 796.652 497.926 796.734 496.506 797.252L492.658 798.493L481.005 802.275L472.71 805.005C468.819 806.285 464.894 808.173 461.166 809.881C460.544 810.166 457.776 811.726 457.256 811.678C456.935 811.649 456.648 811.464 456.344 811.357L455.129 809.736C455.052 806.175 454.33 800.312 455.45 797.085C455.811 796.044 455.628 796.948 455.802 795.546C456.148 792.764 457.162 790.166 457.958 787.497C458.231 786.584 458.589 785.876 458.949 784.997C459.304 784.132 459.547 783.301 459.973 782.457L460.449 781.482C462.469 775.496 466.386 769.052 469.476 763.497C470.771 761.171 472.148 759.199 472.963 756.599Z"/>
	<path fill="#C97A40" d="M659.695 713.356L667.342 725.907C664.441 729.138 662.185 732.418 658.048 734.001C655.48 734.984 652.874 737.811 650.222 739.162C638.682 745.041 626.781 751.403 614.645 755.973C609.921 757.751 604.974 758.948 600.172 760.503C597.272 761.442 594.343 763.14 591.388 763.696C587.492 764.429 581.825 764.309 577.956 763.531C573.039 759.318 569.822 754.17 562.553 754.238L561.49 753.265C586.321 746.371 610.736 739.07 634.006 727.742C642.824 723.449 651.256 718.336 659.695 713.356Z"/>
	<defs>
		<linearGradient id="gradient_14" gradientUnits="userSpaceOnUse" x1="378.27295" y1="811.20984" x2="430.87219" y2="730.87958">
			<stop offset="0" stop-color="#B6472C"/>
			<stop offset="1" stop-color="#CE8341"/>
		</linearGradient>
	</defs>
	<path fill="url(#gradient_14)" d="M363.327 711.978C371.166 714.04 378.69 718.176 385.97 721.706L413.26 734.462L453.548 750.354L472.963 756.599C472.148 759.199 470.771 761.171 469.476 763.497C466.386 769.052 462.469 775.496 460.449 781.482L459.973 782.457C459.547 783.301 459.304 784.132 458.949 784.997C458.589 785.876 458.231 786.584 457.958 787.497C457.162 790.166 456.148 792.764 455.802 795.546C455.628 796.948 455.811 796.044 455.45 797.085C454.33 800.312 455.052 806.175 455.129 809.736C455.154 811.479 455.247 812.623 455.699 814.25L455.949 816.003L457.502 822.116C457.81 823.159 457.734 823.831 457.636 824.892C455.226 827.441 448.803 829.116 445.487 829.422C440.645 829.869 436.248 828.166 431.758 826.588L413.639 819.645C390.009 810.217 367.108 799.984 344.514 788.261C334.895 783.271 324.62 778.327 316.286 771.313C324.495 767.866 332.681 762.303 337.739 754.84L363.327 711.978Z"/>
	<defs>
		<linearGradient id="gradient_15" gradientUnits="userSpaceOnUse" x1="362.21072" y1="736.3526" x2="304.1604" y2="662.12933">
			<stop offset="0" stop-color="#A56E70"/>
			<stop offset="1" stop-color="#C8ABAC"/>
		</linearGradient>
	</defs>
	<path fill="url(#gradient_15)" d="M314.544 659.388L348.979 637.368C355.126 633.301 362.019 627.327 368.969 624.906C372.959 623.517 377.515 623.554 381.588 624.576C387.038 625.945 392.128 629.811 394.852 634.75C397.708 639.928 399.025 646.626 397.251 652.377C394.234 662.157 362.716 709.111 363.327 711.978L337.739 754.84C332.681 762.303 324.495 767.866 316.286 771.313C314.765 770.887 311.004 772.042 309.297 772.262C300.505 773.396 291.107 772.576 282.932 769.015C271.276 763.938 261.592 753.977 256.969 742.113C251.683 728.546 252.989 714.912 258.772 701.796C260.932 698.151 263.262 694.481 266.291 691.487C275.37 682.512 288.182 675.507 299.024 668.817C304.151 665.653 309.174 662.119 314.544 659.388Z"/>
	<path fill="#C88884" d="M659.695 713.356C652.412 699.027 643.597 685.137 635.522 671.217C632.254 665.582 628.14 660.116 626.038 653.914C624.084 648.15 624.708 641.274 627.503 635.873C629.979 631.09 635.042 627.013 640.181 625.479C645.657 623.846 651.798 624.094 657.195 625.892C663.077 627.853 668.922 632.428 674.152 635.77L704.104 654.981C706.947 656.758 710.433 659.625 713.482 660.75L714.482 660.963L718.25 663.255C728.517 669.973 739.168 676.153 749.037 683.442C753.891 687.027 758.673 690.31 762.25 695.283C764.585 698.529 767.334 702.873 768.449 706.724C771.627 722.985 771.242 737.126 761.651 751.256C754.939 761.146 743.365 769.28 731.53 771.594C723.778 773.11 713.429 772.751 705.956 770.041C701.865 768.23 697.572 766.684 693.792 764.252C685.01 758.604 680.162 748.248 675.179 739.407L667.342 725.907L659.695 713.356Z"/>
	<defs>
		<linearGradient id="gradient_16" gradientUnits="userSpaceOnUse" x1="558.04785" y1="570.57074" x2="496.63077" y2="492.18762">
			<stop offset="0" stop-color="#C05B19"/>
			<stop offset="1" stop-color="#DC9949"/>
		</linearGradient>
	</defs>
	<path fill="url(#gradient_16)" d="M554.171 448.309C572.077 461.66 583.403 477.775 586.767 500.124C589.856 520.649 584.383 541.723 571.959 558.253C559.987 574.181 541.787 584.496 522.094 587.184C502.552 589.851 481.902 584.471 466.276 572.375C454.516 563.272 445.613 551.753 440.351 537.82C442.256 536.917 443.4 535.326 445.164 534.316C445.971 533.855 446.489 533.639 447.136 532.928C448.491 531.44 450.026 530.326 451.455 528.969C453.011 527.491 454.898 525.884 456.734 524.714C457.405 524.285 457.891 524.045 458.351 523.366C458.785 522.725 458.505 522.949 459.23 522.495L461.005 521.346C461.742 520.854 462.326 520.454 462.974 519.833C464.1 518.754 463.953 519.788 464.798 519.339C465.197 519.128 466.388 517.113 466.727 516.685C467.62 515.56 469.49 515.098 470.597 514.15L472.741 512.261L474.259 511.104C476.667 509.003 479.416 506.575 482.005 504.698C483.389 503.693 485.117 503.023 486.175 501.648C486.801 500.835 486.328 501.217 487.281 500.543C488.761 499.497 490.538 498.667 491.509 497.094L491.894 496.408L492.846 496.362C493.556 495.505 494.417 495.305 495.141 494.543C495.755 493.896 495.431 494.165 496.266 493.576C498.263 492.166 501.342 490.464 502.739 488.533C503.551 487.41 503.754 488.092 504.679 487.458C505.127 487.151 505.909 485.54 506.25 485.007C507.386 484.803 507.626 484.553 508.503 483.828C509.037 483.387 509.49 482.976 510.109 482.654C510.912 482.236 511.451 482.036 511.979 481.251L512.257 480.731C513.517 480.156 514.935 479.679 515.848 478.605C516.642 477.672 517.359 477.187 518.587 476.928L519.152 476.845C519.482 476.243 520.16 474.565 520.636 474.128C521.21 473.6 522.432 473.431 522.965 472.885C523.334 472.507 523.424 471.909 523.797 471.533C525.265 470.057 526.078 470.591 527.394 468.408L528.346 468.362C529.181 467.422 530.04 466.414 531.17 465.831C532.948 464.912 533.675 463.874 535.183 462.71C536.325 461.828 537.395 461.583 538.422 460.443C540.055 458.627 542.225 458.116 543.778 456.495C544.72 455.511 546.993 453.561 548.37 453.351L548.778 453.346L549.531 452.548C551.863 452.016 552.877 450.154 554.171 448.309Z"/>
	<defs>
		<linearGradient id="gradient_17" gradientUnits="userSpaceOnUse" x1="594.86359" y1="840.84119" x2="572.41272" y2="771.01422">
			<stop offset="0" stop-color="#AB391B"/>
			<stop offset="1" stop-color="#C46F41"/>
		</linearGradient>
	</defs>
	<path fill="url(#gradient_17)" d="M455.129 809.736L456.344 811.357C456.648 811.464 456.935 811.649 457.256 811.678C457.776 811.726 460.544 810.166 461.166 809.881C464.894 808.173 468.819 806.285 472.71 805.005L481.005 802.275L492.658 798.493L496.506 797.252C497.926 796.734 499.655 796.652 500.957 796C501.891 795.532 502.192 795.244 503.31 795.369L503.982 795.478C505.67 794.42 507.375 793.819 509.279 793.259L511 792.77C515.241 791.055 519.756 790.137 524.02 788.504L525.409 787.952C528.491 787.05 532.38 786.185 535.273 784.873C536.253 784.429 535.724 784.589 536.628 784.337L541.374 782.729C542.865 782.038 544.409 782.097 545.864 781.368L546.509 781.011C547.595 780.648 548.815 780.518 549.926 780.12L554.45 778.507L571.162 773.74C573.139 773.263 574.848 772.403 576.752 771.761C578.423 771.197 580.068 770.28 581.738 769.839C585.619 768.812 588.42 766.582 592.64 765.861C593.356 765.194 594.113 764.527 595.173 764.56C596.589 764.603 597.035 764.065 598.523 764.237L599.874 763.316C600.957 762.881 601.413 762.99 602.499 762.211C603.146 761.747 604.145 761.929 604.941 761.917L605.885 761.284L607.662 760.545C608.608 760.037 608.915 759.593 610.025 759.369C611.002 759.173 610.621 759.352 611.471 758.961C612.572 758.456 612.805 758.276 614.001 758.368C614.973 757.816 615.741 757.272 616.886 757.216L617.973 757.145C618.439 756.953 618.841 756.62 619.313 756.445L620 756.199C620.795 755.88 621.263 755.531 622.151 755.621C622.931 755.7 623.007 755.466 623.673 755.044L624.615 755.214C625.309 754.685 625.559 754.532 626.447 754.432C627.356 754.33 627.058 754.461 627.816 754.076C628.744 753.605 628.012 753.888 629.007 753.534L631.663 752.526C633.493 753.137 635.535 751.791 637.328 751.373C640.369 750.664 643.287 749.396 646.322 748.588L661.504 744.315C665.024 743.379 669.126 742.898 672.212 740.799C672.82 740.385 673.193 740.004 673.948 739.873C674.852 739.716 674.049 740.035 675.179 739.407C680.162 748.248 685.01 758.604 693.792 764.252C697.572 766.684 701.865 768.23 705.956 770.041C699.186 776.42 690.094 781.095 681.973 785.612C657.064 799.465 631.487 811.37 604.542 820.717C596.228 823.601 586.848 827.575 577.906 827.332C574.107 827.229 570.691 825.979 567.181 824.672C566.101 826.027 565.556 828.063 564.886 829.666C563.687 832.537 562.356 835.289 560.793 837.98C551.93 853.24 535.687 863.681 518.185 865.592C502.643 867.288 488.183 863.119 476.1 853.323C466.593 845.616 461.386 836.332 457.636 824.892C457.734 823.831 457.81 823.159 457.502 822.116L455.949 816.003L455.699 814.25C455.247 812.623 455.154 811.479 455.129 809.736Z"/>
</svg>
